<?xml version="1.0" standalone="no"?>
 <!DOCTYPE svg PUBLIC "-//W3C//DTD SVG 1.1//EN" 
 "http://www.w3.org/Graphics/SVG/1.1/DTD/svg11.dtd"> 
<svg xmlns="http://www.w3.org/2000/svg" version="1.1" 
    width="6.81482cm" height="4.02082cm" viewBox="0 0 26830 15830 ">
<title>SVG Picture created as matrix_board-F.Cu.svg date 2018/12/17 09:49:17 </title>
  <desc>Picture generated by PCBNEW </desc>
<g style="fill:#000000; fill-opacity:1;stroke:#000000; stroke-opacity:1;
stroke-linecap:round; stroke-linejoin:round; "
 transform="translate(0 0) scale(1 1)">
</g>
<g style="fill:#000000; fill-opacity:0.0; 
stroke:#000000; stroke-width:-0.000393701; stroke-opacity:1; 
stroke-linecap:round; stroke-linejoin:round;">
</g>
<g style="fill:#000000; fill-opacity:0.0; 
stroke:#000000; stroke-width:0; stroke-opacity:1; 
stroke-linecap:round; stroke-linejoin:round;">
</g>
<g style="fill:#000000; fill-opacity:1.0; 
stroke:#000000; stroke-width:0; stroke-opacity:1; 
stroke-linecap:round; stroke-linejoin:round;">
<polyline style="fill-rule:evenodd;"
points="4599,12449
4599,11949
5599,11949
5599,12449
4599,12449
" /> 
<polyline style="fill-rule:evenodd;"
points="2450,12449
2450,11949
3450,11949
3450,12449
2450,12449
" /> 
<polyline style="fill-rule:evenodd;"
points="2450,13449
2450,12949
3450,12949
3450,13449
2450,13449
" /> 
<polyline style="fill-rule:evenodd;"
points="4599,13449
4599,12949
5599,12949
5599,13449
4599,13449
" /> 
<polyline style="fill-rule:evenodd;"
points="4599,11449
4599,10949
5599,10949
5599,11449
4599,11449
" /> 
<polyline style="fill-rule:evenodd;"
points="4599,9449
4599,8949
5599,8949
5599,9449
4599,9449
" /> 
<polyline style="fill-rule:evenodd;"
points="2450,9449
2450,8949
3450,8949
3450,9449
2450,9449
" /> 
<polyline style="fill-rule:evenodd;"
points="2450,10449
2450,9949
3450,9949
3450,10449
2450,10449
" /> 
<polyline style="fill-rule:evenodd;"
points="2450,11449
2450,10949
3450,10949
3450,11449
2450,11449
" /> 
<polyline style="fill-rule:evenodd;"
points="4599,10449
4599,9949
5599,9949
5599,10449
4599,10449
" /> 
<polyline style="fill-rule:evenodd;"
points="4599,8449
4599,7949
5599,7949
5599,8449
4599,8449
" /> 
<polyline style="fill-rule:evenodd;"
points="2450,8449
2450,7949
3450,7949
3450,8449
2450,8449
" /> 
<polyline style="fill-rule:evenodd;"
points="4599,7449
4599,6949
5599,6949
5599,7449
4599,7449
" /> 
<polyline style="fill-rule:evenodd;"
points="2450,7449
2450,6949
3450,6949
3450,7449
2450,7449
" /> 
<polyline style="fill-rule:evenodd;"
points="4599,6449
4599,5949
5599,5949
5599,6449
4599,6449
" /> 
<polyline style="fill-rule:evenodd;"
points="2450,6449
2450,5949
3450,5949
3450,6449
2450,6449
" /> 
<polyline style="fill-rule:evenodd;"
points="17319,2869
17319,3369
16319,3369
16319,2869
17319,2869
" /> 
<polyline style="fill-rule:evenodd;"
points="15170,2869
15170,3369
14170,3369
14170,2869
15170,2869
" /> 
<polyline style="fill-rule:evenodd;"
points="17319,1869
17319,2369
16319,2369
16319,1869
17319,1869
" /> 
<polyline style="fill-rule:evenodd;"
points="15170,1869
15170,2369
14170,2369
14170,1869
15170,1869
" /> 
<polyline style="fill-rule:evenodd;"
points="16305,5574
16305,4865
16934,4865
16934,5574
16305,5574
" /> 
<polyline style="fill-rule:evenodd;"
points="15187,5574
15187,4865
15816,4865
15816,5574
15187,5574
" /> 
<polyline style="fill-rule:evenodd;"
points="16223,7174
16223,6465
16852,6465
16852,7174
16223,7174
" /> 
<polyline style="fill-rule:evenodd;"
points="15105,7174
15105,6465
15734,6465
15734,7174
15105,7174
" /> 
<polyline style="fill-rule:evenodd;"
points="17275,10094
17983,10094
17983,10723
17275,10723
17275,10094
" /> 
<polyline style="fill-rule:evenodd;"
points="17275,11196
17983,11196
17983,11825
17275,11825
17275,11196
" /> 
<polyline style="fill-rule:evenodd;"
points="22370,7269
22370,6769
23370,6769
23370,7269
22370,7269
" /> 
<polyline style="fill-rule:evenodd;"
points="24519,7269
24519,6769
25519,6769
25519,7269
24519,7269
" /> 
<polyline style="fill-rule:evenodd;"
points="22370,8269
22370,7769
23370,7769
23370,8269
22370,8269
" /> 
<polyline style="fill-rule:evenodd;"
points="24519,8269
24519,7769
25519,7769
25519,8269
24519,8269
" /> 
<polyline style="fill-rule:evenodd;"
points="22370,9269
22370,8769
23370,8769
23370,9269
22370,9269
" /> 
<polyline style="fill-rule:evenodd;"
points="24519,9269
24519,8769
25519,8769
25519,9269
24519,9269
" /> 
<polyline style="fill-rule:evenodd;"
points="18346,4574
18346,3865
18975,3865
18975,4574
18346,4574
" /> 
<polyline style="fill-rule:evenodd;"
points="19464,4574
19464,3865
20093,3865
20093,4574
19464,4574
" /> 
<polyline style="fill-rule:evenodd;"
points="11619,1469
12219,1469
12219,2369
11619,2369
11619,1469
" /> 
<polyline style="fill-rule:evenodd;"
points="11619,4069
12219,4069
12219,4969
11619,4969
11619,4069
" /> 
<polyline style="fill-rule:evenodd;"
points="9819,1469
10419,1469
10419,2369
9819,2369
9819,1469
" /> 
<polyline style="fill-rule:evenodd;"
points="9819,4069
10419,4069
10419,4969
9819,4969
9819,4069
" /> 
<polyline style="fill-rule:evenodd;"
points="5619,4069
6219,4069
6219,4969
5619,4969
5619,4069
" /> 
<polyline style="fill-rule:evenodd;"
points="5619,1469
6219,1469
6219,2369
5619,2369
5619,1469
" /> 
<polyline style="fill-rule:evenodd;"
points="7419,4069
8019,4069
8019,4969
7419,4969
7419,4069
" /> 
<polyline style="fill-rule:evenodd;"
points="7419,1469
8019,1469
8019,2369
7419,2369
7419,1469
" /> 
<polyline style="fill-rule:evenodd;"
points="12680,9387
12680,9247
13120,9247
13120,9387
12680,9387
" /> 
<polyline style="fill-rule:evenodd;"
points="12679,9702
12679,9562
13179,9562
13179,9702
12679,9702
" /> 
<polyline style="fill-rule:evenodd;"
points="12679,10017
12679,9877
13179,9877
13179,10017
12679,10017
" /> 
<polyline style="fill-rule:evenodd;"
points="12679,10332
12679,10192
13179,10192
13179,10332
12679,10332
" /> 
<polyline style="fill-rule:evenodd;"
points="12679,10646
12679,10506
13179,10506
13179,10646
12679,10646
" /> 
<polyline style="fill-rule:evenodd;"
points="12679,10961
12679,10821
13179,10821
13179,10961
12679,10961
" /> 
<polyline style="fill-rule:evenodd;"
points="12679,11276
12679,11136
13179,11136
13179,11276
12679,11276
" /> 
<polyline style="fill-rule:evenodd;"
points="12680,11591
12680,11451
13120,11451
13120,11591
12680,11591
" /> 
<polyline style="fill-rule:evenodd;"
points="13447,12358
13447,11918
13587,11918
13587,12358
13447,12358
" /> 
<polyline style="fill-rule:evenodd;"
points="13762,12359
13762,11859
13902,11859
13902,12359
13762,12359
" /> 
<polyline style="fill-rule:evenodd;"
points="14079,12359
14079,11859
14216,11859
14216,12359
14079,12359
" /> 
<polyline style="fill-rule:evenodd;"
points="14394,12359
14394,11859
14531,11859
14531,12359
14394,12359
" /> 
<polyline style="fill-rule:evenodd;"
points="14708,12359
14708,11859
14845,11859
14845,12359
14708,12359
" /> 
<polyline style="fill-rule:evenodd;"
points="15021,12359
15021,11859
15161,11859
15161,12359
15021,12359
" /> 
<polyline style="fill-rule:evenodd;"
points="15336,12359
15336,11859
15476,11859
15476,12359
15336,12359
" /> 
<polyline style="fill-rule:evenodd;"
points="15651,12358
15651,11918
15791,11918
15791,12358
15651,12358
" /> 
<polyline style="fill-rule:evenodd;"
points="16118,11591
16118,11451
16558,11451
16558,11591
16118,11591
" /> 
<polyline style="fill-rule:evenodd;"
points="16059,11276
16059,11136
16559,11136
16559,11276
16059,11276
" /> 
<polyline style="fill-rule:evenodd;"
points="16059,10961
16059,10821
16559,10821
16559,10961
16059,10961
" /> 
<polyline style="fill-rule:evenodd;"
points="16059,10646
16059,10506
16559,10506
16559,10646
16059,10646
" /> 
<polyline style="fill-rule:evenodd;"
points="16059,10332
16059,10192
16559,10192
16559,10332
16059,10332
" /> 
<polyline style="fill-rule:evenodd;"
points="16059,10017
16059,9877
16559,9877
16559,10017
16059,10017
" /> 
<polyline style="fill-rule:evenodd;"
points="16059,9702
16059,9562
16559,9562
16559,9702
16059,9702
" /> 
<polyline style="fill-rule:evenodd;"
points="16118,9387
16118,9247
16558,9247
16558,9387
16118,9387
" /> 
<polyline style="fill-rule:evenodd;"
points="15651,8920
15651,8480
15791,8480
15791,8920
15651,8920
" /> 
<polyline style="fill-rule:evenodd;"
points="15336,8979
15336,8479
15476,8479
15476,8979
15336,8979
" /> 
<polyline style="fill-rule:evenodd;"
points="15021,8979
15021,8479
15161,8479
15161,8979
15021,8979
" /> 
<polyline style="fill-rule:evenodd;"
points="14708,8979
14708,8479
14845,8479
14845,8979
14708,8979
" /> 
<polyline style="fill-rule:evenodd;"
points="14394,8979
14394,8479
14531,8479
14531,8979
14394,8979
" /> 
<polyline style="fill-rule:evenodd;"
points="14079,8979
14079,8479
14216,8479
14216,8979
14079,8979
" /> 
<polyline style="fill-rule:evenodd;"
points="13762,8979
13762,8479
13902,8479
13902,8979
13762,8979
" /> 
<polyline style="fill-rule:evenodd;"
points="13447,8920
13447,8480
13587,8480
13587,8920
13447,8920
" /> 
<polyline style="fill-rule:evenodd;"
points="18387,2374
18387,1665
19016,1665
19016,2374
18387,2374
" /> 
<polyline style="fill-rule:evenodd;"
points="19505,2374
19505,1665
20134,1665
20134,2374
19505,2374
" /> 
<polyline style="fill-rule:evenodd;"
points="13195,4466
13904,4466
13904,5095
13195,5095
13195,4466
" /> 
<polyline style="fill-rule:evenodd;"
points="13195,5584
13904,5584
13904,6213
13195,6213
13195,5584
" /> 
<polyline style="fill-rule:evenodd;"
points="9012,11015
9012,10701
10547,10701
10547,11015
9012,11015
" /> 
<polyline style="fill-rule:evenodd;"
points="10547,11232
10547,11546
9012,11546
9012,11232
10547,11232
" /> 
<polyline style="fill-rule:evenodd;"
points="10547,11763
10547,12077
9012,12077
9012,11763
10547,11763
" /> 
<circle cx="19419.7" cy="9619.69" r="314.961" /> 
</g>
<g style="fill:#000000; fill-opacity:1.0; 
stroke:#000000; stroke-width:39.3701; stroke-opacity:1; 
stroke-linecap:round; stroke-linejoin:round;">
</g>
<g style="fill:#000000; fill-opacity:1.0; 
stroke:#000000; stroke-width:0; stroke-opacity:1; 
stroke-linecap:round; stroke-linejoin:round;">
<circle cx="11619.7" cy="9819.69" r="334.646" /> 
</g>
<g style="fill:#000000; fill-opacity:1.0; 
stroke:#000000; stroke-width:39.3701; stroke-opacity:1; 
stroke-linecap:round; stroke-linejoin:round;">
</g>
<g style="fill:#000000; fill-opacity:1.0; 
stroke:#000000; stroke-width:0; stroke-opacity:1; 
stroke-linecap:round; stroke-linejoin:round;">
<circle cx="5019.69" cy="14019.7" r="314.961" /> 
</g>
<g style="fill:#000000; fill-opacity:1.0; 
stroke:#000000; stroke-width:39.3701; stroke-opacity:1; 
stroke-linecap:round; stroke-linejoin:round;">
</g>
<g style="fill:#000000; fill-opacity:1.0; 
stroke:#000000; stroke-width:0; stroke-opacity:1; 
stroke-linecap:round; stroke-linejoin:round;">
<circle cx="16219.7" cy="4019.69" r="314.961" /> 
</g>
<g style="fill:#000000; fill-opacity:1.0; 
stroke:#000000; stroke-width:39.3701; stroke-opacity:1; 
stroke-linecap:round; stroke-linejoin:round;">
</g>
<g style="fill:#000000; fill-opacity:1.0; 
stroke:#000000; stroke-width:0; stroke-opacity:1; 
stroke-linecap:round; stroke-linejoin:round;">
<circle cx="11619.7" cy="11019.7" r="314.961" /> 
</g>
<g style="fill:#000000; fill-opacity:1.0; 
stroke:#000000; stroke-width:39.3701; stroke-opacity:1; 
stroke-linecap:round; stroke-linejoin:round;">
</g>
<g style="fill:#000000; fill-opacity:1.0; 
stroke:#000000; stroke-width:0; stroke-opacity:1; 
stroke-linecap:round; stroke-linejoin:round;">
<circle cx="1819.69" cy="10219.7" r="314.961" /> 
</g>
<g style="fill:#000000; fill-opacity:1.0; 
stroke:#000000; stroke-width:39.3701; stroke-opacity:1; 
stroke-linecap:round; stroke-linejoin:round;">
</g>
<g style="fill:#000000; fill-opacity:1.0; 
stroke:#000000; stroke-width:0; stroke-opacity:1; 
stroke-linecap:round; stroke-linejoin:round;">
<circle cx="17619.7" cy="9619.69" r="314.961" /> 
</g>
<g style="fill:#000000; fill-opacity:1.0; 
stroke:#000000; stroke-width:39.3701; stroke-opacity:1; 
stroke-linecap:round; stroke-linejoin:round;">
</g>
<g style="fill:#000000; fill-opacity:1.0; 
stroke:#000000; stroke-width:0; stroke-opacity:1; 
stroke-linecap:round; stroke-linejoin:round;">
<circle cx="17619.7" cy="8619.69" r="314.961" /> 
</g>
<g style="fill:#000000; fill-opacity:1.0; 
stroke:#000000; stroke-width:39.3701; stroke-opacity:1; 
stroke-linecap:round; stroke-linejoin:round;">
</g>
<g style="fill:#000000; fill-opacity:1.0; 
stroke:#000000; stroke-width:0; stroke-opacity:1; 
stroke-linecap:round; stroke-linejoin:round;">
<circle cx="6239.69" cy="10169.7" r="314.961" /> 
</g>
<g style="fill:#000000; fill-opacity:1.0; 
stroke:#000000; stroke-width:39.3701; stroke-opacity:1; 
stroke-linecap:round; stroke-linejoin:round;">
</g>
<g style="fill:#000000; fill-opacity:1.0; 
stroke:#000000; stroke-width:0; stroke-opacity:1; 
stroke-linecap:round; stroke-linejoin:round;">
<circle cx="1819.69" cy="11419.7" r="314.961" /> 
</g>
<g style="fill:#000000; fill-opacity:1.0; 
stroke:#000000; stroke-width:39.3701; stroke-opacity:1; 
stroke-linecap:round; stroke-linejoin:round;">
</g>
<g style="fill:#000000; fill-opacity:1.0; 
stroke:#000000; stroke-width:0; stroke-opacity:1; 
stroke-linecap:round; stroke-linejoin:round;">
<circle cx="16619.7" cy="7819.69" r="314.961" /> 
</g>
<g style="fill:#000000; fill-opacity:1.0; 
stroke:#000000; stroke-width:39.3701; stroke-opacity:1; 
stroke-linecap:round; stroke-linejoin:round;">
</g>
<g style="fill:#000000; fill-opacity:1.0; 
stroke:#000000; stroke-width:0; stroke-opacity:1; 
stroke-linecap:round; stroke-linejoin:round;">
<circle cx="6229.69" cy="11199.7" r="314.961" /> 
</g>
<g style="fill:#000000; fill-opacity:1.0; 
stroke:#000000; stroke-width:39.3701; stroke-opacity:1; 
stroke-linecap:round; stroke-linejoin:round;">
</g>
<g style="fill:#000000; fill-opacity:1.0; 
stroke:#000000; stroke-width:0; stroke-opacity:1; 
stroke-linecap:round; stroke-linejoin:round;">
<circle cx="15619.7" cy="7819.69" r="314.961" /> 
</g>
<g style="fill:#000000; fill-opacity:1.0; 
stroke:#000000; stroke-width:39.3701; stroke-opacity:1; 
stroke-linecap:round; stroke-linejoin:round;">
</g>
<g style="fill:#000000; fill-opacity:1.0; 
stroke:#000000; stroke-width:98.4252; stroke-opacity:1; 
stroke-linecap:round; stroke-linejoin:round;">
</g>
<g style="fill:#000000; fill-opacity:0.0; 
stroke:#000000; stroke-width:98.4252; stroke-opacity:1; 
stroke-linecap:round; stroke-linejoin:round;">
<path d="M19819 1979
L19819 2019
" />
<path d="M18925 1085
L19819 1979
" />
<path d="M15552 1085
L15619 1085
" />
<path d="M15619 1085
L18925 1085
" />
<path d="M14670 3119
L14670 2119
" />
<path d="M15356 1085
L15419 1085
" />
<path d="M14670 2119
L14670 1771
" />
<path d="M14670 1771
L15356 1085
" />
<path d="M15419 1085
L15619 1085
" />
<path d="M12472 10055
L12472 10482
" />
<path d="M12581 9947
L12472 10055
" />
<path d="M12929 9947
L12581 9947
" />
<path d="M12566 10576
L12929 10576
" />
<path d="M12472 10482
L12566 10576
" />
<path d="M12329 10055
L12472 10055
" />
<path d="M12092 9819
L12329 10055
" />
<path d="M11619 9819
L12092 9819
" />
<path d="M19104 8973
L16950 6819
" />
<path d="M19104 9304
L19104 8973
" />
<path d="M16950 6819
L16537 6819
" />
<path d="M19419 9619
L19104 9304
" />
<path d="M5040 13998
L5019 14019
" />
<path d="M5099 13939
L5019 14019
" />
<path d="M5099 13199
L5099 13939
" />
<path d="M4072 7199
L3542 7729
" />
<path d="M2243 9615
L2348 9719
" />
<path d="M2298 7729
L2243 7784
" />
<path d="M3542 7729
L2298 7729
" />
<path d="M4501 9199
L5099 9199
" />
<path d="M3981 9719
L4501 9199
" />
<path d="M2348 9719
L3981 9719
" />
<path d="M1298 13030
L1298 9995
" />
<path d="M1298 9995
L2243 9049
" />
<path d="M3320 15053
L1298 13030
" />
<path d="M19334 15053
L3320 15053
" />
<path d="M25019 9368
L19334 15053
" />
<path d="M25019 9019
L25019 9368
" />
<path d="M2243 7784
L2243 9049
" />
<path d="M2243 9049
L2243 9615
" />
<path d="M5099 7199
L4072 7199
" />
<path d="M5698 7199
L5099 7199
" />
<path d="M8318 9819
L5698 7199
" />
<path d="M11619 9819
L8318 9819
" />
<path d="M17483 10262
L17629 10408
" />
<path d="M16309 10262
L17483 10262
" />
<path d="M19819 2472
L19819 2019
" />
<path d="M20299 5819
L20299 2952
" />
<path d="M20299 2952
L19819 2472
" />
<path d="M25618 9019
L25726 8911
" />
<path d="M25381 6258
L20739 6258
" />
<path d="M25726 6604
L25381 6258
" />
<path d="M20739 6258
L20299 5819
" />
<path d="M25726 8911
L25726 6604
" />
<path d="M25019 9019
L25618 9019
" />
<path d="M13278 9947
L12929 9947
" />
<path d="M13354 9947
L13278 9947
" />
<path d="M13669 10262
L13354 9947
" />
<path d="M16309 10262
L13669 10262
" />
<path d="M8318 10794
L8318 9819
" />
<path d="M8913 11389
L8318 10794
" />
<path d="M9779 11389
L8913 11389
" />
<path d="M17571 4219
L16819 3468
" />
<path d="M16819 3468
L16819 3119
" />
<path d="M18660 4219
L17571 4219
" />
<path d="M16771 3468
L16219 4019
" />
<path d="M16819 3468
L16771 3468
" />
<path d="M11919 2069
L11919 1919
" />
<path d="M13869 4019
L11919 2069
" />
<path d="M16219 4019
L13869 4019
" />
<path d="M16819 3119
L16819 2119
" />
<path d="M11619 11019
L12065 11019
" />
<path d="M12065 11019
L12193 10891
" />
<path d="M12193 10891
L12581 10891
" />
<path d="M12581 10891
L12929 10891
" />
<path d="M13278 10891
L12929 10891
" />
<path d="M13306 10891
L13278 10891
" />
<path d="M13386 10812
L13306 10891
" />
<path d="M13386 10341
L13386 10812
" />
<path d="M13307 10262
L13386 10341
" />
<path d="M12929 10262
L13307 10262
" />
<path d="M13781 11206
L13386 10812
" />
<path d="M16309 11206
L13781 11206
" />
<path d="M8118 1919
L7719 1919
" />
<path d="M8774 1262
L8118 1919
" />
<path d="M10864 1262
L8774 1262
" />
<path d="M11521 1919
L10864 1262
" />
<path d="M11919 1919
L11521 1919
" />
<path d="M13869 4047
L13869 4019
" />
<path d="M13549 4367
L13869 4047
" />
<path d="M13549 4780
L13549 4367
" />
<path d="M16658 11206
L16309 11206
" />
<path d="M16873 11206
L16658 11206
" />
<path d="M17177 11510
L16873 11206
" />
<path d="M17629 11510
L17177 11510
" />
<path d="M19739 7380
L18660 6301
" />
<path d="M20800 7380
L19739 7380
" />
<path d="M18660 4672
L18660 4219
" />
<path d="M18660 6301
L18660 4672
" />
<path d="M21617 6562
L20800 7380
" />
<path d="M23964 6562
L21617 6562
" />
<path d="M24421 7019
L23964 6562
" />
<path d="M25019 7019
L24421 7019
" />
<path d="M12816 8700
L12545 8429
" />
<path d="M13517 8700
L12816 8700
" />
<path d="M3549 6199
L2950 6199
" />
<path d="M4005 5742
L3549 6199
" />
<path d="M5765 5742
L4005 5742
" />
<path d="M8290 8267
L5765 5742
" />
<path d="M8290 8267
L8290 8270
" />
<path d="M8290 8270
L8449 8429
" />
<path d="M12545 8429
L8449 8429
" />
<path d="M12582 9317
L11954 8689
" />
<path d="M12900 9317
L12582 9317
" />
<path d="M5698 6199
L5099 6199
" />
<path d="M8073 8575
L5698 6199
" />
<path d="M8075 8575
L8189 8689
" />
<path d="M8073 8575
L8075 8575
" />
<path d="M11954 8689
L8189 8689
" />
<path d="M3549 7199
L2950 7199
" />
<path d="M4005 6742
L3549 7199
" />
<path d="M5765 6742
L4005 6742
" />
<path d="M7978 8956
L5765 6742
" />
<path d="M11591 8956
L7978 8956
" />
<path d="M12267 9632
L11591 8956
" />
<path d="M12929 9632
L12267 9632
" />
<path d="M13349 12138
L12666 12821
" />
<path d="M9383 12821
L8669 12107
" />
<path d="M12666 12821
L9383 12821
" />
<path d="M13517 12138
L13349 12138
" />
<path d="M8669 12107
L8669 11507
" />
<path d="M8669 11507
L8657 11507
" />
<path d="M8657 11507
L8059 10909
" />
<path d="M8059 10909
L8059 9929
" />
<path d="M3549 8199
L2950 8199
" />
<path d="M4005 7742
L3549 8199
" />
<path d="M5872 7742
L4005 7742
" />
<path d="M8059 9929
L5872 7742
" />
<path d="M13241 13077
L9267 13077
" />
<path d="M13832 12485
L13241 13077
" />
<path d="M13832 12109
L13832 12485
" />
<path d="M9267 13077
L8409 12219
" />
<path d="M8409 12219
L8409 11629
" />
<path d="M8409 11629
L7799 11019
" />
<path d="M7799 11019
L7799 10039
" />
<path d="M5959 8199
L5099 8199
" />
<path d="M7799 10039
L5959 8199
" />
<path d="M3549 9199
L2950 9199
" />
<path d="M4005 8742
L3549 9199
" />
<path d="M5765 8742
L4005 8742
" />
<path d="M6761 9739
L5765 8742
" />
<path d="M6761 10933
L6761 9739
" />
<path d="M9161 13333
L6761 10933
" />
<path d="M13347 13333
L9161 13333
" />
<path d="M14147 12532
L13347 13333
" />
<path d="M14147 12109
L14147 12532
" />
<path d="M17606 9632
L17619 9619
" />
<path d="M16309 9632
L17606 9632
" />
<path d="M2930 10219
L2950 10199
" />
<path d="M1819 10219
L2930 10219
" />
<path d="M16921 9317
L17619 8619
" />
<path d="M16338 9317
L16921 9317
" />
<path d="M5129 10169
L5099 10199
" />
<path d="M6209 10199
L6239 10169
" />
<path d="M5099 10199
L6209 10199
" />
<path d="M16452 7819
L16619 7819
" />
<path d="M15721 8550
L16452 7819
" />
<path d="M15721 8700
L15721 8550
" />
<path d="M2730 11419
L2950 11199
" />
<path d="M1819 11419
L2730 11419
" />
<path d="M6229 11199
L5099 11199
" />
<path d="M15406 8729
L15406 8032
" />
<path d="M15406 8032
L15619 7819
" />
<path d="M3549 12199
L2950 12199
" />
<path d="M4005 11742
L3549 12199
" />
<path d="M5765 11742
L4005 11742
" />
<path d="M14462 12579
L13453 13589
" />
<path d="M7611 13589
L5765 11742
" />
<path d="M13453 13589
L7611 13589
" />
<path d="M14462 12109
L14462 12579
" />
<path d="M4501 12199
L5099 12199
" />
<path d="M4044 12656
L4501 12199
" />
<path d="M2371 12656
L4044 12656
" />
<path d="M2243 12784
L2371 12656
" />
<path d="M2243 13615
L2243 12784
" />
<path d="M3426 14797
L2243 13615
" />
<path d="M12968 14797
L3426 14797
" />
<path d="M15091 12674
L12968 14797
" />
<path d="M15091 12109
L15091 12674
" />
<path d="M3200 13199
L2950 13199
" />
<path d="M4542 14541
L3200 13199
" />
<path d="M12862 14541
L4542 14541
" />
<path d="M14776 12627
L12862 14541
" />
<path d="M14776 12109
L14776 12627
" />
<path d="M16425 12138
L16586 12299
" />
<path d="M15721 12138
L16425 12138
" />
<path d="M23120 7019
L22870 7019
" />
<path d="M23833 7732
L23120 7019
" />
<path d="M23833 9541
L23833 7732
" />
<path d="M21074 12299
L23833 9541
" />
<path d="M16586 12299
L21074 12299
" />
<path d="M23120 8019
L22870 8019
" />
<path d="M23577 8476
L23120 8019
" />
<path d="M23577 9435
L23577 8476
" />
<path d="M20980 12031
L23577 9435
" />
<path d="M16338 11690
L16680 12031
" />
<path d="M16680 12031
L20980 12031
" />
<path d="M16338 11521
L16338 11690
" />
<path d="M21170 12565
L24089 9647
" />
<path d="M15406 12485
L15486 12565
" />
<path d="M15486 12565
L21170 12565
" />
<path d="M15406 12109
L15406 12485
" />
<path d="M24769 8019
L25019 8019
" />
<path d="M24089 8700
L24769 8019
" />
<path d="M24089 9647
L24089 8700
" />
<path d="M14462 6358
L14462 6689
" />
<path d="M13549 5898
L14002 5898
" />
<path d="M14462 6689
L14462 8729
" />
<path d="M14002 5898
L14462 6358
" />
<path d="M19512 9019
L22870 9019
" />
<path d="M17140 6648
L19512 9019
" />
<path d="M17140 4699
L17140 6648
" />
<path d="M17099 4658
L17140 4699
" />
<path d="M15021 4658
L17099 4658
" />
<path d="M14462 5217
L15021 4658
" />
<path d="M14462 6689
L14462 5217
" />
<path d="M19778 4179
L19778 4219
" />
<path d="M19365 3766
L19778 4179
" />
<path d="M19325 3766
L19365 3766
" />
<path d="M18701 3142
L19325 3766
" />
<path d="M18701 2019
L18701 3142
" />
<path d="M15419 6459
L16619 5259
" />
<path d="M16619 5259
L16619 5219
" />
<path d="M15419 6819
L15419 6459
" />
<path d="M15091 8381
L15091 8729
" />
<path d="M15091 8354
L15091 8381
" />
<path d="M14898 8160
L15091 8354
" />
<path d="M14898 6275
L14898 8160
" />
<path d="M15501 5672
L14898 6275
" />
<path d="M15501 5219
L15501 5672
" />
<path d="M10855 6377
L12247 6377
" />
<path d="M9612 2974
L9612 5135
" />
<path d="M10119 2468
L9612 2974
" />
<path d="M9612 5135
L10855 6377
" />
<path d="M10119 1919
L10119 2468
" />
<path d="M14147 8277
L14147 8729
" />
<path d="M12247 6377
L14147 8277
" />
<path d="M5919 2468
L5919 1919
" />
<path d="M6426 2974
L5919 2468
" />
<path d="M6426 4348
L6426 2974
" />
<path d="M8711 6633
L6426 4348
" />
<path d="M12112 6633
L8711 6633
" />
<path d="M13832 8353
L12112 6633
" />
<path d="M13832 8729
L13832 8353
" />
<path d="M12581 11206
L12929 11206
" />
<path d="M12553 11206
L12581 11206
" />
<path d="M12218 11541
L12553 11206
" />
<path d="M11328 11541
L12218 11541
" />
<path d="M10645 10858
L11328 11541
" />
<path d="M9779 10858
L10645 10858
" />
<path d="M12601 11521
L12900 11521
" />
<path d="M12601 11521
L12601 11521
" />
<path d="M12201 11920
L12601 11521
" />
<path d="M9779 11920
L12201 11920
" />
</g>
<g style="fill:#FFFFFF; fill-opacity:0.0; 
stroke:#FFFFFF; stroke-width:98.4252; stroke-opacity:1; 
stroke-linecap:round; stroke-linejoin:round;">
</g>
<g style="fill:#FFFFFF; fill-opacity:1.0; 
stroke:#FFFFFF; stroke-width:0; stroke-opacity:1; 
stroke-linecap:round; stroke-linejoin:round;">
<circle cx="19419.7" cy="9619.69" r="175.197" /> 
</g>
<g style="fill:#FFFFFF; fill-opacity:1.0; 
stroke:#FFFFFF; stroke-width:39.3701; stroke-opacity:1; 
stroke-linecap:round; stroke-linejoin:round;">
</g>
<g style="fill:#FFFFFF; fill-opacity:1.0; 
stroke:#FFFFFF; stroke-width:0; stroke-opacity:1; 
stroke-linecap:round; stroke-linejoin:round;">
<circle cx="11619.7" cy="9819.69" r="175.197" /> 
</g>
<g style="fill:#FFFFFF; fill-opacity:1.0; 
stroke:#FFFFFF; stroke-width:39.3701; stroke-opacity:1; 
stroke-linecap:round; stroke-linejoin:round;">
</g>
<g style="fill:#FFFFFF; fill-opacity:1.0; 
stroke:#FFFFFF; stroke-width:0; stroke-opacity:1; 
stroke-linecap:round; stroke-linejoin:round;">
<circle cx="5019.69" cy="14019.7" r="175.197" /> 
</g>
<g style="fill:#FFFFFF; fill-opacity:1.0; 
stroke:#FFFFFF; stroke-width:39.3701; stroke-opacity:1; 
stroke-linecap:round; stroke-linejoin:round;">
</g>
<g style="fill:#FFFFFF; fill-opacity:1.0; 
stroke:#FFFFFF; stroke-width:0; stroke-opacity:1; 
stroke-linecap:round; stroke-linejoin:round;">
<circle cx="16219.7" cy="4019.69" r="175.197" /> 
</g>
<g style="fill:#FFFFFF; fill-opacity:1.0; 
stroke:#FFFFFF; stroke-width:39.3701; stroke-opacity:1; 
stroke-linecap:round; stroke-linejoin:round;">
</g>
<g style="fill:#FFFFFF; fill-opacity:1.0; 
stroke:#FFFFFF; stroke-width:0; stroke-opacity:1; 
stroke-linecap:round; stroke-linejoin:round;">
<circle cx="11619.7" cy="11019.7" r="175.197" /> 
</g>
<g style="fill:#FFFFFF; fill-opacity:1.0; 
stroke:#FFFFFF; stroke-width:39.3701; stroke-opacity:1; 
stroke-linecap:round; stroke-linejoin:round;">
</g>
<g style="fill:#FFFFFF; fill-opacity:1.0; 
stroke:#FFFFFF; stroke-width:0; stroke-opacity:1; 
stroke-linecap:round; stroke-linejoin:round;">
<circle cx="1819.69" cy="10219.7" r="175.197" /> 
</g>
<g style="fill:#FFFFFF; fill-opacity:1.0; 
stroke:#FFFFFF; stroke-width:39.3701; stroke-opacity:1; 
stroke-linecap:round; stroke-linejoin:round;">
</g>
<g style="fill:#FFFFFF; fill-opacity:1.0; 
stroke:#FFFFFF; stroke-width:0; stroke-opacity:1; 
stroke-linecap:round; stroke-linejoin:round;">
<circle cx="17619.7" cy="9619.69" r="175.197" /> 
</g>
<g style="fill:#FFFFFF; fill-opacity:1.0; 
stroke:#FFFFFF; stroke-width:39.3701; stroke-opacity:1; 
stroke-linecap:round; stroke-linejoin:round;">
</g>
<g style="fill:#FFFFFF; fill-opacity:1.0; 
stroke:#FFFFFF; stroke-width:0; stroke-opacity:1; 
stroke-linecap:round; stroke-linejoin:round;">
<circle cx="17619.7" cy="8619.69" r="175.197" /> 
</g>
<g style="fill:#FFFFFF; fill-opacity:1.0; 
stroke:#FFFFFF; stroke-width:39.3701; stroke-opacity:1; 
stroke-linecap:round; stroke-linejoin:round;">
</g>
<g style="fill:#FFFFFF; fill-opacity:1.0; 
stroke:#FFFFFF; stroke-width:0; stroke-opacity:1; 
stroke-linecap:round; stroke-linejoin:round;">
<circle cx="6239.69" cy="10169.7" r="175.197" /> 
</g>
<g style="fill:#FFFFFF; fill-opacity:1.0; 
stroke:#FFFFFF; stroke-width:39.3701; stroke-opacity:1; 
stroke-linecap:round; stroke-linejoin:round;">
</g>
<g style="fill:#FFFFFF; fill-opacity:1.0; 
stroke:#FFFFFF; stroke-width:0; stroke-opacity:1; 
stroke-linecap:round; stroke-linejoin:round;">
<circle cx="1819.69" cy="11419.7" r="175.197" /> 
</g>
<g style="fill:#FFFFFF; fill-opacity:1.0; 
stroke:#FFFFFF; stroke-width:39.3701; stroke-opacity:1; 
stroke-linecap:round; stroke-linejoin:round;">
</g>
<g style="fill:#FFFFFF; fill-opacity:1.0; 
stroke:#FFFFFF; stroke-width:0; stroke-opacity:1; 
stroke-linecap:round; stroke-linejoin:round;">
<circle cx="16619.7" cy="7819.69" r="175.197" /> 
</g>
<g style="fill:#FFFFFF; fill-opacity:1.0; 
stroke:#FFFFFF; stroke-width:39.3701; stroke-opacity:1; 
stroke-linecap:round; stroke-linejoin:round;">
</g>
<g style="fill:#FFFFFF; fill-opacity:1.0; 
stroke:#FFFFFF; stroke-width:0; stroke-opacity:1; 
stroke-linecap:round; stroke-linejoin:round;">
<circle cx="6229.69" cy="11199.7" r="175.197" /> 
</g>
<g style="fill:#FFFFFF; fill-opacity:1.0; 
stroke:#FFFFFF; stroke-width:39.3701; stroke-opacity:1; 
stroke-linecap:round; stroke-linejoin:round;">
</g>
<g style="fill:#FFFFFF; fill-opacity:1.0; 
stroke:#FFFFFF; stroke-width:0; stroke-opacity:1; 
stroke-linecap:round; stroke-linejoin:round;">
<circle cx="15619.7" cy="7819.69" r="175.197" /> 
</g>
<g style="fill:#FFFFFF; fill-opacity:1.0; 
stroke:#FFFFFF; stroke-width:39.3701; stroke-opacity:1; 
stroke-linecap:round; stroke-linejoin:round;">
</g>
<g style="fill:#000000; fill-opacity:1.0; 
stroke:#000000; stroke-width:39.3701; stroke-opacity:1; 
stroke-linecap:round; stroke-linejoin:round;">
</g> 
</svg>
