<?xml version="1.0" encoding="UTF-8" standalone="no"?>
<svg
   xmlns:dc="http://purl.org/dc/elements/1.1/"
   xmlns:cc="http://creativecommons.org/ns#"
   xmlns:rdf="http://www.w3.org/1999/02/22-rdf-syntax-ns#"
   xmlns:svg="http://www.w3.org/2000/svg"
   xmlns="http://www.w3.org/2000/svg"
   xmlns:sodipodi="http://sodipodi.sourceforge.net/DTD/sodipodi-0.dtd"
   xmlns:inkscape="http://www.inkscape.org/namespaces/inkscape"
   version="1.1"
   width="4.9657cm"
   height="2.7432cm"
   viewBox="0 0 19550 10800 "
   id="svg5298"
   inkscape:version="0.91 r13725"
   sodipodi:docname="matrix_board-F.Cu.svg"
   inkscape:export-filename="/Users/jguillette/Documents/htmaa/led_matrix_board/matrix_board-F.Cu.png"
   inkscape:export-xdpi="2000"
   inkscape:export-ydpi="2000">
  <metadata
     id="metadata6006">
    <rdf:RDF>
      <cc:Work
         rdf:about="">
        <dc:format>image/svg+xml</dc:format>
        <dc:type
           rdf:resource="http://purl.org/dc/dcmitype/StillImage" />
        <dc:title>SVG Picture created as matrix_board-F.Cu.svg date 2018/12/15 14:02:35 </dc:title>
      </cc:Work>
    </rdf:RDF>
  </metadata>
  <defs
     id="defs6004" />
  <sodipodi:namedview
     pagecolor="#ffffff"
     bordercolor="#666666"
     borderopacity="1"
     objecttolerance="10"
     gridtolerance="10"
     guidetolerance="10"
     inkscape:pageopacity="1"
     inkscape:pageshadow="2"
     inkscape:window-width="1491"
     inkscape:window-height="886"
     id="namedview6002"
     showgrid="false"
     inkscape:zoom="1.5572605"
     inkscape:cx="14.769526"
     inkscape:cy="99.972265"
     inkscape:window-x="0"
     inkscape:window-y="0"
     inkscape:window-maximized="0"
     inkscape:current-layer="svg5298" />
  <title
     id="title5300">SVG Picture created as matrix_board-F.Cu.svg date 2018/12/15 14:02:35 </title>
  <desc
     id="desc5302">Picture generated by PCBNEW </desc>
  <g
     style="fill:#000000; fill-opacity:1;stroke:#000000; stroke-opacity:1; stroke-linecap:round; stroke-linejoin:round; "
     transform="translate(0 0) scale(1 1)"
     id="g5304" />
  <g
     style="fill:#000000; fill-opacity:0.0;  stroke:#000000; stroke-width:-0.000393701; stroke-opacity:1;  stroke-linecap:round; stroke-linejoin:round;"
     id="g5306" />
  <g
     style="fill:#000000; fill-opacity:0.0;  stroke:#000000; stroke-width:0; stroke-opacity:1;  stroke-linecap:round; stroke-linejoin:round;"
     id="g5308" />
  <g
     style="fill:#000000; fill-opacity:1.0;  stroke:#000000; stroke-width:0; stroke-opacity:1;  stroke-linecap:round; stroke-linejoin:round;"
     id="g5310">
    <polyline
       style="fill-rule:evenodd;"
       points="17129,1939 17129,2439 16129,2439 16129,1939 17129,1939 "
       id="polyline5312" />
    <polyline
       style="fill-rule:evenodd;"
       points="14980,2939 14980,3439 13980,3439 13980,2939 14980,2939 "
       id="polyline5314" />
    <polyline
       style="fill-rule:evenodd;"
       points="17129,2939 17129,3439 16129,3439 16129,2939 17129,2939 "
       id="polyline5316" />
    <polyline
       style="fill-rule:evenodd;"
       points="14980,1939 14980,2439 13980,2439 13980,1939 14980,1939 "
       id="polyline5318" />
    <polyline
       style="fill-rule:evenodd;"
       points="14980,3939 14980,4439 13980,4439 13980,3939 14980,3939 "
       id="polyline5320" />
    <polyline
       style="fill-rule:evenodd;"
       points="17129,3939 17129,4439 16129,4439 16129,3939 17129,3939 "
       id="polyline5322" />
    <polyline
       style="fill-rule:evenodd;"
       points="14980,4939 14980,5439 13980,5439 13980,4939 14980,4939 "
       id="polyline5324" />
    <polyline
       style="fill-rule:evenodd;"
       points="17129,4939 17129,5439 16129,5439 16129,4939 17129,4939 "
       id="polyline5326" />
    <polyline
       style="fill-rule:evenodd;"
       points="17129,5939 17129,6439 16129,6439 16129,5939 17129,5939 "
       id="polyline5328" />
    <polyline
       style="fill-rule:evenodd;"
       points="14980,5939 14980,6439 13980,6439 13980,5939 14980,5939 "
       id="polyline5330" />
    <polyline
       style="fill-rule:evenodd;"
       points="14980,6939 14980,7439 13980,7439 13980,6939 14980,6939 "
       id="polyline5332" />
    <polyline
       style="fill-rule:evenodd;"
       points="17129,6939 17129,7439 16129,7439 16129,6939 17129,6939 "
       id="polyline5334" />
    <polyline
       style="fill-rule:evenodd;"
       points="14980,7939 14980,8439 13980,8439 13980,7939 14980,7939 "
       id="polyline5336" />
    <polyline
       style="fill-rule:evenodd;"
       points="17129,7939 17129,8439 16129,8439 16129,7939 17129,7939 "
       id="polyline5338" />
    <polyline
       style="fill-rule:evenodd;"
       points="14980,8939 14980,9439 13980,9439 13980,8939 14980,8939 "
       id="polyline5340" />
    <polyline
       style="fill-rule:evenodd;"
       points="17129,8939 17129,9439 16129,9439 16129,8939 17129,8939 "
       id="polyline5342" />
    <polyline
       style="fill-rule:evenodd;"
       points="11568,5911 11568,6051 11128,6051 11128,5911 11568,5911 "
       id="polyline5344" />
    <polyline
       style="fill-rule:evenodd;"
       points="11569,5596 11569,5736 11069,5736 11069,5596 11569,5596 "
       id="polyline5346" />
    <polyline
       style="fill-rule:evenodd;"
       points="11569,5281 11569,5421 11069,5421 11069,5281 11569,5281 "
       id="polyline5348" />
    <polyline
       style="fill-rule:evenodd;"
       points="11569,4966 11569,5106 11069,5106 11069,4966 11569,4966 "
       id="polyline5350" />
    <polyline
       style="fill-rule:evenodd;"
       points="11569,4652 11569,4792 11069,4792 11069,4652 11569,4652 "
       id="polyline5352" />
    <polyline
       style="fill-rule:evenodd;"
       points="11569,4337 11569,4477 11069,4477 11069,4337 11569,4337 "
       id="polyline5354" />
    <polyline
       style="fill-rule:evenodd;"
       points="11569,4022 11569,4162 11069,4162 11069,4022 11569,4022 "
       id="polyline5356" />
    <polyline
       style="fill-rule:evenodd;"
       points="11568,3707 11568,3847 11128,3847 11128,3707 11568,3707 "
       id="polyline5358" />
    <polyline
       style="fill-rule:evenodd;"
       points="10801,2940 10801,3380 10661,3380 10661,2940 10801,2940 "
       id="polyline5360" />
    <polyline
       style="fill-rule:evenodd;"
       points="10486,2939 10486,3439 10346,3439 10346,2939 10486,2939 "
       id="polyline5362" />
    <polyline
       style="fill-rule:evenodd;"
       points="10170,2939 10170,3439 10033,3439 10033,2939 10170,2939 "
       id="polyline5364" />
    <polyline
       style="fill-rule:evenodd;"
       points="9855,2939 9855,3439 9718,3439 9718,2939 9855,2939 "
       id="polyline5366" />
    <polyline
       style="fill-rule:evenodd;"
       points="9541,2939 9541,3439 9404,3439 9404,2939 9541,2939 "
       id="polyline5368" />
    <polyline
       style="fill-rule:evenodd;"
       points="9227,2939 9227,3439 9087,3439 9087,2939 9227,2939 "
       id="polyline5370" />
    <polyline
       style="fill-rule:evenodd;"
       points="8912,2939 8912,3439 8772,3439 8772,2939 8912,2939 "
       id="polyline5372" />
    <polyline
       style="fill-rule:evenodd;"
       points="8597,2940 8597,3380 8457,3380 8457,2940 8597,2940 "
       id="polyline5374" />
    <polyline
       style="fill-rule:evenodd;"
       points="8130,3707 8130,3847 7690,3847 7690,3707 8130,3707 "
       id="polyline5376" />
    <polyline
       style="fill-rule:evenodd;"
       points="8189,4022 8189,4162 7689,4162 7689,4022 8189,4022 "
       id="polyline5378" />
    <polyline
       style="fill-rule:evenodd;"
       points="8189,4337 8189,4477 7689,4477 7689,4337 8189,4337 "
       id="polyline5380" />
    <polyline
       style="fill-rule:evenodd;"
       points="8189,4652 8189,4792 7689,4792 7689,4652 8189,4652 "
       id="polyline5382" />
    <polyline
       style="fill-rule:evenodd;"
       points="8189,4966 8189,5106 7689,5106 7689,4966 8189,4966 "
       id="polyline5384" />
    <polyline
       style="fill-rule:evenodd;"
       points="8189,5281 8189,5421 7689,5421 7689,5281 8189,5281 "
       id="polyline5386" />
    <polyline
       style="fill-rule:evenodd;"
       points="8189,5596 8189,5736 7689,5736 7689,5596 8189,5596 "
       id="polyline5388" />
    <polyline
       style="fill-rule:evenodd;"
       points="8130,5911 8130,6051 7690,6051 7690,5911 8130,5911 "
       id="polyline5390" />
    <polyline
       style="fill-rule:evenodd;"
       points="8597,6378 8597,6818 8457,6818 8457,6378 8597,6378 "
       id="polyline5392" />
    <polyline
       style="fill-rule:evenodd;"
       points="8912,6319 8912,6819 8772,6819 8772,6319 8912,6319 "
       id="polyline5394" />
    <polyline
       style="fill-rule:evenodd;"
       points="9227,6319 9227,6819 9087,6819 9087,6319 9227,6319 "
       id="polyline5396" />
    <polyline
       style="fill-rule:evenodd;"
       points="9541,6319 9541,6819 9404,6819 9404,6319 9541,6319 "
       id="polyline5398" />
    <polyline
       style="fill-rule:evenodd;"
       points="9855,6319 9855,6819 9718,6819 9718,6319 9855,6319 "
       id="polyline5400" />
    <polyline
       style="fill-rule:evenodd;"
       points="10170,6319 10170,6819 10033,6819 10033,6319 10170,6319 "
       id="polyline5402" />
    <polyline
       style="fill-rule:evenodd;"
       points="10486,6319 10486,6819 10346,6819 10346,6319 10486,6319 "
       id="polyline5404" />
    <polyline
       style="fill-rule:evenodd;"
       points="10801,6378 10801,6818 10661,6818 10661,6378 10801,6378 "
       id="polyline5406" />
    <polyline
       style="fill-rule:evenodd;"
       points="6179,5629 6179,6129 5179,6129 5179,5629 6179,5629 "
       id="polyline5408" />
    <polyline
       style="fill-rule:evenodd;"
       points="4030,5629 4030,6129 3030,6129 3030,5629 4030,5629 "
       id="polyline5410" />
    <polyline
       style="fill-rule:evenodd;"
       points="6179,4629 6179,5129 5179,5129 5179,4629 6179,4629 "
       id="polyline5412" />
    <polyline
       style="fill-rule:evenodd;"
       points="4030,4629 4030,5129 3030,5129 3030,4629 4030,4629 "
       id="polyline5414" />
    <polyline
       style="fill-rule:evenodd;"
       points="6179,3629 6179,4129 5179,4129 5179,3629 6179,3629 "
       id="polyline5416" />
    <polyline
       style="fill-rule:evenodd;"
       points="4030,3629 4030,4129 3030,4129 3030,3629 4030,3629 "
       id="polyline5418" />
    <polyline
       style="fill-rule:evenodd;"
       points="9925,8583 10634,8583 10634,9212 9925,9212 9925,8583 "
       id="polyline5420" />
    <polyline
       style="fill-rule:evenodd;"
       points="9925,7465 10634,7465 10634,8094 9925,8094 9925,7465 "
       id="polyline5422" />
    <polyline
       style="fill-rule:evenodd;"
       points="9484,8094 8775,8094 8775,7465 9484,7465 9484,8094 "
       id="polyline5424" />
    <polyline
       style="fill-rule:evenodd;"
       points="9484,9212 8775,9212 8775,8583 9484,8583 9484,9212 "
       id="polyline5426" />
    <polyline
       style="fill-rule:evenodd;"
       points="1175,3964 1883,3964 1883,4593 1175,4593 1175,3964 "
       id="polyline5428" />
    <polyline
       style="fill-rule:evenodd;"
       points="1175,5066 1883,5066 1883,5695 1175,5695 1175,5066 "
       id="polyline5430" />
    <polyline
       style="fill-rule:evenodd;"
       points="7025,7265 7734,7265 7734,7894 7025,7894 7025,7265 "
       id="polyline5432" />
    <polyline
       style="fill-rule:evenodd;"
       points="7025,8383 7734,8383 7734,9012 7025,9012 7025,8383 "
       id="polyline5434" />
    <polyline
       style="fill-rule:evenodd;"
       points="6234,9003 5525,9003 5525,8374 6234,8374 6234,9003 "
       id="polyline5436" />
    <polyline
       style="fill-rule:evenodd;"
       points="6234,7885 5525,7885 5525,7256 6234,7256 6234,7885 "
       id="polyline5438" />
    <circle
       cx="8259.53"
       cy="8889.53"
       r="295.276"
       id="circle5440" />
  </g>
  <g
     style="fill:#000000; fill-opacity:1.0;  stroke:#000000; stroke-width:39.3701; stroke-opacity:1;  stroke-linecap:round; stroke-linejoin:round;"
     id="g5442" />
  <g
     style="fill:#000000; fill-opacity:1.0;  stroke:#000000; stroke-width:0; stroke-opacity:1;  stroke-linecap:round; stroke-linejoin:round;"
     id="g5444">
    <circle
       cx="10569.5"
       cy="5779.53"
       r="295.276"
       id="circle5446" />
  </g>
  <g
     style="fill:#000000; fill-opacity:1.0;  stroke:#000000; stroke-width:39.3701; stroke-opacity:1;  stroke-linecap:round; stroke-linejoin:round;"
     id="g5448" />
  <g
     style="fill:#000000; fill-opacity:1.0;  stroke:#000000; stroke-width:0; stroke-opacity:1;  stroke-linecap:round; stroke-linejoin:round;"
     id="g5450">
    <circle
       cx="9509.53"
       cy="4619.53"
       r="295.276"
       id="circle5452" />
  </g>
  <g
     style="fill:#000000; fill-opacity:1.0;  stroke:#000000; stroke-width:39.3701; stroke-opacity:1;  stroke-linecap:round; stroke-linejoin:round;"
     id="g5454" />
  <g
     style="fill:#000000; fill-opacity:1.0;  stroke:#000000; stroke-width:0; stroke-opacity:1;  stroke-linecap:round; stroke-linejoin:round;"
     id="g5456">
    <circle
       cx="9539.53"
       cy="5469.53"
       r="295.276"
       id="circle5458" />
  </g>
  <g
     style="fill:#000000; fill-opacity:1.0;  stroke:#000000; stroke-width:39.3701; stroke-opacity:1;  stroke-linecap:round; stroke-linejoin:round;"
     id="g5460" />
  <g
     style="fill:#000000; fill-opacity:1.0;  stroke:#000000; stroke-width:0; stroke-opacity:1;  stroke-linecap:round; stroke-linejoin:round;"
     id="g5462">
    <circle
       cx="7149.53"
       cy="4799.53"
       r="295.276"
       id="circle5464" />
  </g>
  <g
     style="fill:#000000; fill-opacity:1.0;  stroke:#000000; stroke-width:39.3701; stroke-opacity:1;  stroke-linecap:round; stroke-linejoin:round;"
     id="g5466" />
  <g
     style="fill:#000000; fill-opacity:1.0;  stroke:#000000; stroke-width:0; stroke-opacity:1;  stroke-linecap:round; stroke-linejoin:round;"
     id="g5468">
    <circle
       cx="15529.5"
       cy="4179.53"
       r="295.276"
       id="circle5470" />
  </g>
  <g
     style="fill:#000000; fill-opacity:1.0;  stroke:#000000; stroke-width:39.3701; stroke-opacity:1;  stroke-linecap:round; stroke-linejoin:round;"
     id="g5472" />
  <g
     style="fill:#000000; fill-opacity:1.0;  stroke:#000000; stroke-width:0; stroke-opacity:1;  stroke-linecap:round; stroke-linejoin:round;"
     id="g5474">
    <circle
       cx="15509.5"
       cy="5199.53"
       r="295.276"
       id="circle5476" />
  </g>
  <g
     style="fill:#000000; fill-opacity:1.0;  stroke:#000000; stroke-width:39.3701; stroke-opacity:1;  stroke-linecap:round; stroke-linejoin:round;"
     id="g5478" />
  <g
     style="fill:#000000; fill-opacity:1.0;  stroke:#000000; stroke-width:0; stroke-opacity:1;  stroke-linecap:round; stroke-linejoin:round;"
     id="g5480">
    <circle
       cx="17829.5"
       cy="5199.53"
       r="295.276"
       id="circle5482" />
  </g>
  <g
     style="fill:#000000; fill-opacity:1.0;  stroke:#000000; stroke-width:39.3701; stroke-opacity:1;  stroke-linecap:round; stroke-linejoin:round;"
     id="g5484" />
  <g
     style="fill:#000000; fill-opacity:1.0;  stroke:#000000; stroke-width:0; stroke-opacity:1;  stroke-linecap:round; stroke-linejoin:round;"
     id="g5486">
    <circle
       cx="17849.5"
       cy="4169.53"
       r="295.276"
       id="circle5488" />
  </g>
  <g
     style="fill:#000000; fill-opacity:1.0;  stroke:#000000; stroke-width:39.3701; stroke-opacity:1;  stroke-linecap:round; stroke-linejoin:round;"
     id="g5490" />
  <g
     style="fill:#000000; fill-opacity:1.0;  stroke:#000000; stroke-width:0; stroke-opacity:1;  stroke-linecap:round; stroke-linejoin:round;"
     id="g5492">
    <circle
       cx="14499.5"
       cy="1349.53"
       r="295.276"
       id="circle5494" />
  </g>
  <g
     style="fill:#000000; fill-opacity:1.0;  stroke:#000000; stroke-width:39.3701; stroke-opacity:1;  stroke-linecap:round; stroke-linejoin:round;"
     id="g5496" />
  <g
     style="fill:#000000; fill-opacity:1.0;  stroke:#000000; stroke-width:0; stroke-opacity:1;  stroke-linecap:round; stroke-linejoin:round;"
     id="g5498">
    <circle
       cx="10509.5"
       cy="4089.53"
       r="295.276"
       id="circle5500" />
  </g>
  <g
     style="fill:#000000; fill-opacity:1.0;  stroke:#000000; stroke-width:39.3701; stroke-opacity:1;  stroke-linecap:round; stroke-linejoin:round;"
     id="g5502" />
  <g
     style="fill:#000000; fill-opacity:1.0;  stroke:#000000; stroke-width:0; stroke-opacity:1;  stroke-linecap:round; stroke-linejoin:round;"
     id="g5504">
    <circle
       cx="12119.5"
       cy="5049.53"
       r="295.276"
       id="circle5506" />
  </g>
  <g
     style="fill:#000000; fill-opacity:1.0;  stroke:#000000; stroke-width:39.3701; stroke-opacity:1;  stroke-linecap:round; stroke-linejoin:round;"
     id="g5508" />
  <g
     style="fill:#000000; fill-opacity:1.0;  stroke:#000000; stroke-width:0; stroke-opacity:1;  stroke-linecap:round; stroke-linejoin:round;"
     id="g5510">
    <circle
       cx="4399.53"
       cy="7329.53"
       r="295.276"
       id="circle5512" />
  </g>
  <g
     style="fill:#000000; fill-opacity:1.0;  stroke:#000000; stroke-width:39.3701; stroke-opacity:1;  stroke-linecap:round; stroke-linejoin:round;"
     id="g5514" />
  <g
     style="fill:#000000; fill-opacity:1.0;  stroke:#000000; stroke-width:0; stroke-opacity:1;  stroke-linecap:round; stroke-linejoin:round;"
     id="g5516">
    <circle
       cx="8699.53"
       cy="4609.53"
       r="295.276"
       id="circle5518" />
  </g>
  <g
     style="fill:#000000; fill-opacity:1.0;  stroke:#000000; stroke-width:39.3701; stroke-opacity:1;  stroke-linecap:round; stroke-linejoin:round;"
     id="g5520" />
  <g
     style="fill:#000000; fill-opacity:1.0;  stroke:#000000; stroke-width:0; stroke-opacity:1;  stroke-linecap:round; stroke-linejoin:round;"
     id="g5522">
    <circle
       cx="7189.53"
       cy="5879.53"
       r="295.276"
       id="circle5524" />
  </g>
  <g
     style="fill:#000000; fill-opacity:1.0;  stroke:#000000; stroke-width:39.3701; stroke-opacity:1;  stroke-linecap:round; stroke-linejoin:round;"
     id="g5526" />
  <g
     style="fill:#000000; fill-opacity:1.0;  stroke:#000000; stroke-width:98.4252; stroke-opacity:1;  stroke-linecap:round; stroke-linejoin:round;"
     id="g5528" />
  <g
     style="fill:#000000; fill-opacity:0.0;  stroke:#000000; stroke-width:98.4252; stroke-opacity:1;  stroke-linecap:round; stroke-linejoin:round;"
     id="g5530">
    <path
       d="M1569 4278 L1968 3879 "
       id="path5532" />
    <path
       d="M1529 4278 L1569 4278 "
       id="path5534" />
    <path
       d="M1968 3879 L3530 3879 "
       id="path5536" />
    <path
       d="M13882 8189 L12329 6636 "
       id="path5538" />
    <path
       d="M14480 8189 L13882 8189 "
       id="path5540" />
    <path
       d="M12862 9409 L13412 9959 "
       id="path5542" />
    <path
       d="M15078 8189 L14480 8189 "
       id="path5544" />
    <path
       d="M15393 8189 L15078 8189 "
       id="path5546" />
    <path
       d="M15849 7732 L15393 8189 "
       id="path5548" />
    <path
       d="M17294 7732 L15849 7732 "
       id="path5550" />
    <path
       d="M17336 7774 L17294 7732 "
       id="path5552" />
    <path
       d="M17336 9604 L17336 7774 "
       id="path5554" />
    <path
       d="M16981 9959 L17336 9604 "
       id="path5556" />
    <path
       d="M13412 9959 L16981 9959 "
       id="path5558" />
    <path
       d="M15078 6189 L14480 6189 "
       id="path5560" />
    <path
       d="M15535 6646 L15078 6189 "
       id="path5562" />
    <path
       d="M17208 6646 L15535 6646 "
       id="path5564" />
    <path
       d="M17336 6774 L17208 6646 "
       id="path5566" />
    <path
       d="M17336 7691 L17336 6774 "
       id="path5568" />
    <path
       d="M17294 7732 L17336 7691 "
       id="path5570" />
    <path
       d="M14510 2159 L14480 2189 "
       id="path5572" />
    <path
       d="M7932 5029 L7939 5036 "
       id="path5574" />
    <path
       d="M6926 8697 L7379 8697 "
       id="path5576" />
    <path
       d="M6414 9209 L6926 8697 "
       id="path5578" />
    <path
       d="M4318 9209 L6414 9209 "
       id="path5580" />
    <path
       d="M968 5860 L4318 9209 "
       id="path5582" />
    <path
       d="M968 4799 L968 5860 "
       id="path5584" />
    <path
       d="M1490 4278 L968 4799 "
       id="path5586" />
    <path
       d="M1529 4278 L1490 4278 "
       id="path5588" />
    <path
       d="M9718 9418 L10239 8897 "
       id="path5590" />
    <path
       d="M7687 9418 L9718 9418 "
       id="path5592" />
    <path
       d="M10239 8897 L10279 8897 "
       id="path5594" />
    <path
       d="M7379 9110 L7687 9418 "
       id="path5596" />
    <path
       d="M7379 8697 L7379 9110 "
       id="path5598" />
    <path
       d="M11244 9409 L12862 9409 "
       id="path5600" />
    <path
       d="M10732 8897 L11244 9409 "
       id="path5602" />
    <path
       d="M10279 8897 L10732 8897 "
       id="path5604" />
    <path
       d="M14490 2179 L14480 2189 "
       id="path5606" />
    <path
       d="M14499 2170 L14480 2189 "
       id="path5608" />
    <path
       d="M14499 1349 L14499 2170 "
       id="path5610" />
    <path
       d="M11792 4722 L12119 5049 "
       id="path5612" />
    <path
       d="M11319 4722 L11792 4722 "
       id="path5614" />
    <path
       d="M11817 5351 L12119 5049 "
       id="path5616" />
    <path
       d="M11319 5351 L11817 5351 "
       id="path5618" />
    <path
       d="M12119 5467 L12119 5049 "
       id="path5620" />
    <path
       d="M12329 5677 L12119 5467 "
       id="path5622" />
    <path
       d="M12329 6636 L12329 5677 "
       id="path5624" />
    <path
       d="M7386 5036 L7149 4799 "
       id="path5626" />
    <path
       d="M7939 5036 L7386 5036 "
       id="path5628" />
    <path
       d="M5839 8688 L5879 8688 "
       id="path5630" />
    <path
       d="M7958 4089 L7956 4092 "
       id="path5632" />
    <path
       d="M10509 4089 L7958 4089 "
       id="path5634" />
    <path
       d="M10512 5037 L11302 5037 "
       id="path5636" />
    <path
       d="M10509 5039 L10512 5037 "
       id="path5638" />
    <path
       d="M10511 4407 L10509 4409 "
       id="path5640" />
    <path
       d="M11302 4407 L10511 4407 "
       id="path5642" />
    <path
       d="M10509 4409 L10509 5039 "
       id="path5644" />
    <path
       d="M10509 4089 L10509 4409 "
       id="path5646" />
    <path
       d="M1569 5380 L2068 5879 "
       id="path5648" />
    <path
       d="M1529 5380 L1569 5380 "
       id="path5650" />
    <path
       d="M2068 5879 L3530 5879 "
       id="path5652" />
    <path
       d="M3530 6460 L4399 7329 "
       id="path5654" />
    <path
       d="M3530 5879 L3530 6460 "
       id="path5656" />
    <path
       d="M5758 8688 L5879 8688 "
       id="path5658" />
    <path
       d="M4399 7329 L5758 8688 "
       id="path5660" />
    <path
       d="M16031 9189 L16629 9189 "
       id="path5662" />
    <path
       d="M15574 9646 L16031 9189 "
       id="path5664" />
    <path
       d="M13460 9646 L15574 9646 "
       id="path5666" />
    <path
       d="M10731 6916 L13460 9646 "
       id="path5668" />
    <path
       d="M10731 6598 L10731 6916 "
       id="path5670" />
    <path
       d="M13882 9189 L14480 9189 "
       id="path5672" />
    <path
       d="M11817 7125 L13882 9189 "
       id="path5674" />
    <path
       d="M11817 6619 L11817 7125 "
       id="path5676" />
    <path
       d="M11348 6149 L11817 6619 "
       id="path5678" />
    <path
       d="M11348 5981 L11348 6149 "
       id="path5680" />
    <path
       d="M16031 8189 L16629 8189 "
       id="path5682" />
    <path
       d="M15574 8646 L16031 8189 "
       id="path5684" />
    <path
       d="M13815 8646 L15574 8646 "
       id="path5686" />
    <path
       d="M12073 6904 L13815 8646 "
       id="path5688" />
    <path
       d="M12073 6044 L12073 6904 "
       id="path5690" />
    <path
       d="M11695 5666 L12073 6044 "
       id="path5692" />
    <path
       d="M11319 5666 L11695 5666 "
       id="path5694" />
    <path
       d="M16031 7189 L16629 7189 "
       id="path5696" />
    <path
       d="M15574 7646 L16031 7189 "
       id="path5698" />
    <path
       d="M10731 3160 L12750 3160 "
       id="path5700" />
    <path
       d="M13815 7646 L15574 7646 "
       id="path5702" />
    <path
       d="M12750 3160 L12750 6581 "
       id="path5704" />
    <path
       d="M12750 6581 L13815 7646 "
       id="path5706" />
    <path
       d="M13006 5965 L14230 7189 "
       id="path5708" />
    <path
       d="M10416 2813 L10496 2733 "
       id="path5710" />
    <path
       d="M13006 2733 L13006 5965 "
       id="path5712" />
    <path
       d="M10496 2733 L13006 2733 "
       id="path5714" />
    <path
       d="M14230 7189 L14480 7189 "
       id="path5716" />
    <path
       d="M10416 3189 L10416 2813 "
       id="path5718" />
    <path
       d="M10390 2477 L13262 2477 "
       id="path5720" />
    <path
       d="M13262 2477 L13262 5093 "
       id="path5722" />
    <path
       d="M10101 2766 L10390 2477 "
       id="path5724" />
    <path
       d="M10101 3189 L10101 2766 "
       id="path5726" />
    <path
       d="M13815 5646 L13262 5093 "
       id="path5728" />
    <path
       d="M15213 5646 L13815 5646 "
       id="path5730" />
    <path
       d="M15756 6189 L15213 5646 "
       id="path5732" />
    <path
       d="M16629 6189 L15756 6189 "
       id="path5734" />
    <path
       d="M16639 5199 L16629 5189 "
       id="path5736" />
    <path
       d="M17829 5199 L16639 5199 "
       id="path5738" />
    <path
       d="M8699 5027 L8699 4609 "
       id="path5740" />
    <path
       d="M8699 5254 L8699 5027 "
       id="path5742" />
    <path
       d="M8287 5666 L8699 5254 "
       id="path5744" />
    <path
       d="M7939 5666 L8287 5666 "
       id="path5746" />
    <path
       d="M14490 5199 L14480 5189 "
       id="path5748" />
    <path
       d="M15509 5199 L14490 5199 "
       id="path5750" />
    <path
       d="M9214 4914 L9509 4619 "
       id="path5752" />
    <path
       d="M9037 5091 L9214 4914 "
       id="path5754" />
    <path
       d="M9037 5278 L9037 5091 "
       id="path5756" />
    <path
       d="M8334 5981 L9037 5278 "
       id="path5758" />
    <path
       d="M7910 5981 L8334 5981 "
       id="path5760" />
    <path
       d="M16649 4169 L16629 4189 "
       id="path5762" />
    <path
       d="M17849 4169 L16649 4169 "
       id="path5764" />
    <path
       d="M7908 6598 L7189 5879 "
       id="path5766" />
    <path
       d="M8527 6598 L7908 6598 "
       id="path5768" />
    <path
       d="M14490 4179 L14480 4189 "
       id="path5770" />
    <path
       d="M15529 4179 L14490 4179 "
       id="path5772" />
    <path
       d="M8842 6166 L9539 5469 "
       id="path5774" />
    <path
       d="M8842 6569 L8842 6166 "
       id="path5776" />
    <path
       d="M13517 2222 L13517 3727 "
       id="path5778" />
    <path
       d="M9786 3189 L9786 2719 "
       id="path5780" />
    <path
       d="M10284 2222 L13517 2222 "
       id="path5782" />
    <path
       d="M9786 2719 L10284 2222 "
       id="path5784" />
    <path
       d="M15238 3727 L13517 3727 "
       id="path5786" />
    <path
       d="M15776 3189 L15238 3727 "
       id="path5788" />
    <path
       d="M16629 3189 L15776 3189 "
       id="path5790" />
    <path
       d="M9157 2841 L9157 3189 "
       id="path5792" />
    <path
       d="M9157 2624 L9157 2841 "
       id="path5794" />
    <path
       d="M16409 847 L10934 847 "
       id="path5796" />
    <path
       d="M17336 2604 L17336 1774 "
       id="path5798" />
    <path
       d="M17294 2646 L17336 2604 "
       id="path5800" />
    <path
       d="M17336 1774 L16409 847 "
       id="path5802" />
    <path
       d="M15936 2646 L17294 2646 "
       id="path5804" />
    <path
       d="M15393 3189 L15936 2646 "
       id="path5806" />
    <path
       d="M10934 847 L9157 2624 "
       id="path5808" />
    <path
       d="M14480 3189 L15393 3189 "
       id="path5810" />
    <path
       d="M13773 2635 L13784 2646 "
       id="path5812" />
    <path
       d="M10178 1966 L13773 1966 "
       id="path5814" />
    <path
       d="M9472 2671 L10178 1966 "
       id="path5816" />
    <path
       d="M13773 1966 L13773 2635 "
       id="path5818" />
    <path
       d="M9472 3189 L9472 2671 "
       id="path5820" />
    <path
       d="M15574 2646 L13784 2646 "
       id="path5822" />
    <path
       d="M16031 2189 L15574 2646 "
       id="path5824" />
    <path
       d="M16629 2189 L16031 2189 "
       id="path5826" />
    <path
       d="M8359 3160 L8527 3160 "
       id="path5828" />
    <path
       d="M7635 3160 L8359 3160 "
       id="path5830" />
    <path
       d="M6459 4336 L7635 3160 "
       id="path5832" />
    <path
       d="M5100 4336 L6459 4336 "
       id="path5834" />
    <path
       d="M4972 4464 L5100 4336 "
       id="path5836" />
    <path
       d="M4972 5422 L4972 4464 "
       id="path5838" />
    <path
       d="M5429 5879 L4972 5422 "
       id="path5840" />
    <path
       d="M5679 5879 L5429 5879 "
       id="path5842" />
    <path
       d="M5679 4879 L5929 4879 "
       id="path5844" />
    <path
       d="M7592 3777 L7910 3777 "
       id="path5846" />
    <path
       d="M6277 4879 L7379 3777 "
       id="path5848" />
    <path
       d="M7379 3777 L7592 3777 "
       id="path5850" />
    <path
       d="M5679 4879 L6277 4879 "
       id="path5852" />
    <path
       d="M3780 4879 L3530 4879 "
       id="path5854" />
    <path
       d="M4461 4199 L3780 4879 "
       id="path5856" />
    <path
       d="M4461 3975 L4461 4199 "
       id="path5858" />
    <path
       d="M5703 2733 L4461 3975 "
       id="path5860" />
    <path
       d="M8842 3189 L8842 2813 "
       id="path5862" />
    <path
       d="M8842 2813 L8762 2733 "
       id="path5864" />
    <path
       d="M8762 2733 L5703 2733 "
       id="path5866" />
    <path
       d="M9786 6802 L9786 6569 "
       id="path5868" />
    <path
       d="M9786 6917 L9786 6569 "
       id="path5870" />
    <path
       d="M9786 6946 L9786 6917 "
       id="path5872" />
    <path
       d="M9706 7026 L9786 6946 "
       id="path5874" />
    <path
       d="M5704 7026 L9706 7026 "
       id="path5876" />
    <path
       d="M4716 6038 L5704 7026 "
       id="path5878" />
    <path
       d="M4716 4243 L4716 6038 "
       id="path5880" />
    <path
       d="M5081 3879 L4716 4243 "
       id="path5882" />
    <path
       d="M5679 3879 L5081 3879 "
       id="path5884" />
    <path
       d="M7370 7570 L7379 7579 "
       id="path5886" />
    <path
       d="M5879 7570 L7370 7570 "
       id="path5888" />
    <path
       d="M10279 7779 L9129 7779 "
       id="path5890" />
    <path
       d="M9121 8889 L9129 8897 "
       id="path5892" />
    <path
       d="M10151 5779 L10569 5779 "
       id="path5894" />
    <path
       d="M9959 5971 L10151 5779 "
       id="path5896" />
    <path
       d="M9407 5971 L9959 5971 "
       id="path5898" />
    <path
       d="M9157 6221 L9407 5971 "
       id="path5900" />
    <path
       d="M9157 6569 L9157 6221 "
       id="path5902" />
    <path
       d="M8267 8897 L8259 8889 "
       id="path5904" />
    <path
       d="M9129 8897 L8267 8897 "
       id="path5906" />
  </g>
  <g
     style="fill:#FFFFFF; fill-opacity:0.0;  stroke:#FFFFFF; stroke-width:98.4252; stroke-opacity:1;  stroke-linecap:round; stroke-linejoin:round;"
     id="g5908" />
  <g
     style="fill:#FFFFFF; fill-opacity:1.0;  stroke:#FFFFFF; stroke-width:0; stroke-opacity:1;  stroke-linecap:round; stroke-linejoin:round;"
     id="g5910">
    <circle
       cx="8259.53"
       cy="8889.53"
       r="169.291"
       id="circle5912" />
  </g>
  <g
     style="fill:#FFFFFF; fill-opacity:1.0;  stroke:#FFFFFF; stroke-width:39.3701; stroke-opacity:1;  stroke-linecap:round; stroke-linejoin:round;"
     id="g5914" />
  <g
     style="fill:#FFFFFF; fill-opacity:1.0;  stroke:#FFFFFF; stroke-width:0; stroke-opacity:1;  stroke-linecap:round; stroke-linejoin:round;"
     id="g5916">
    <circle
       cx="10569.5"
       cy="5779.53"
       r="169.291"
       id="circle5918" />
  </g>
  <g
     style="fill:#FFFFFF; fill-opacity:1.0;  stroke:#FFFFFF; stroke-width:39.3701; stroke-opacity:1;  stroke-linecap:round; stroke-linejoin:round;"
     id="g5920" />
  <g
     style="fill:#FFFFFF; fill-opacity:1.0;  stroke:#FFFFFF; stroke-width:0; stroke-opacity:1;  stroke-linecap:round; stroke-linejoin:round;"
     id="g5922">
    <circle
       cx="9509.53"
       cy="4619.53"
       r="169.291"
       id="circle5924" />
  </g>
  <g
     style="fill:#FFFFFF; fill-opacity:1.0;  stroke:#FFFFFF; stroke-width:39.3701; stroke-opacity:1;  stroke-linecap:round; stroke-linejoin:round;"
     id="g5926" />
  <g
     style="fill:#FFFFFF; fill-opacity:1.0;  stroke:#FFFFFF; stroke-width:0; stroke-opacity:1;  stroke-linecap:round; stroke-linejoin:round;"
     id="g5928">
    <circle
       cx="9539.53"
       cy="5469.53"
       r="169.291"
       id="circle5930" />
  </g>
  <g
     style="fill:#FFFFFF; fill-opacity:1.0;  stroke:#FFFFFF; stroke-width:39.3701; stroke-opacity:1;  stroke-linecap:round; stroke-linejoin:round;"
     id="g5932" />
  <g
     style="fill:#FFFFFF; fill-opacity:1.0;  stroke:#FFFFFF; stroke-width:0; stroke-opacity:1;  stroke-linecap:round; stroke-linejoin:round;"
     id="g5934">
    <circle
       cx="7149.53"
       cy="4799.53"
       r="169.291"
       id="circle5936" />
  </g>
  <g
     style="fill:#FFFFFF; fill-opacity:1.0;  stroke:#FFFFFF; stroke-width:39.3701; stroke-opacity:1;  stroke-linecap:round; stroke-linejoin:round;"
     id="g5938" />
  <g
     style="fill:#FFFFFF; fill-opacity:1.0;  stroke:#FFFFFF; stroke-width:0; stroke-opacity:1;  stroke-linecap:round; stroke-linejoin:round;"
     id="g5940">
    <circle
       cx="15529.5"
       cy="4179.53"
       r="169.291"
       id="circle5942" />
  </g>
  <g
     style="fill:#FFFFFF; fill-opacity:1.0;  stroke:#FFFFFF; stroke-width:39.3701; stroke-opacity:1;  stroke-linecap:round; stroke-linejoin:round;"
     id="g5944" />
  <g
     style="fill:#FFFFFF; fill-opacity:1.0;  stroke:#FFFFFF; stroke-width:0; stroke-opacity:1;  stroke-linecap:round; stroke-linejoin:round;"
     id="g5946">
    <circle
       cx="15509.5"
       cy="5199.53"
       r="169.291"
       id="circle5948" />
  </g>
  <g
     style="fill:#FFFFFF; fill-opacity:1.0;  stroke:#FFFFFF; stroke-width:39.3701; stroke-opacity:1;  stroke-linecap:round; stroke-linejoin:round;"
     id="g5950" />
  <g
     style="fill:#FFFFFF; fill-opacity:1.0;  stroke:#FFFFFF; stroke-width:0; stroke-opacity:1;  stroke-linecap:round; stroke-linejoin:round;"
     id="g5952">
    <circle
       cx="17829.5"
       cy="5199.53"
       r="169.291"
       id="circle5954" />
  </g>
  <g
     style="fill:#FFFFFF; fill-opacity:1.0;  stroke:#FFFFFF; stroke-width:39.3701; stroke-opacity:1;  stroke-linecap:round; stroke-linejoin:round;"
     id="g5956" />
  <g
     style="fill:#FFFFFF; fill-opacity:1.0;  stroke:#FFFFFF; stroke-width:0; stroke-opacity:1;  stroke-linecap:round; stroke-linejoin:round;"
     id="g5958">
    <circle
       cx="17849.5"
       cy="4169.53"
       r="169.291"
       id="circle5960" />
  </g>
  <g
     style="fill:#FFFFFF; fill-opacity:1.0;  stroke:#FFFFFF; stroke-width:39.3701; stroke-opacity:1;  stroke-linecap:round; stroke-linejoin:round;"
     id="g5962" />
  <g
     style="fill:#FFFFFF; fill-opacity:1.0;  stroke:#FFFFFF; stroke-width:0; stroke-opacity:1;  stroke-linecap:round; stroke-linejoin:round;"
     id="g5964">
    <circle
       cx="14499.5"
       cy="1349.53"
       r="169.291"
       id="circle5966" />
  </g>
  <g
     style="fill:#FFFFFF; fill-opacity:1.0;  stroke:#FFFFFF; stroke-width:39.3701; stroke-opacity:1;  stroke-linecap:round; stroke-linejoin:round;"
     id="g5968" />
  <g
     style="fill:#FFFFFF; fill-opacity:1.0;  stroke:#FFFFFF; stroke-width:0; stroke-opacity:1;  stroke-linecap:round; stroke-linejoin:round;"
     id="g5970">
    <circle
       cx="10509.5"
       cy="4089.53"
       r="169.291"
       id="circle5972" />
  </g>
  <g
     style="fill:#FFFFFF; fill-opacity:1.0;  stroke:#FFFFFF; stroke-width:39.3701; stroke-opacity:1;  stroke-linecap:round; stroke-linejoin:round;"
     id="g5974" />
  <g
     style="fill:#FFFFFF; fill-opacity:1.0;  stroke:#FFFFFF; stroke-width:0; stroke-opacity:1;  stroke-linecap:round; stroke-linejoin:round;"
     id="g5976">
    <circle
       cx="12119.5"
       cy="5049.53"
       r="169.291"
       id="circle5978" />
  </g>
  <g
     style="fill:#FFFFFF; fill-opacity:1.0;  stroke:#FFFFFF; stroke-width:39.3701; stroke-opacity:1;  stroke-linecap:round; stroke-linejoin:round;"
     id="g5980" />
  <g
     style="fill:#FFFFFF; fill-opacity:1.0;  stroke:#FFFFFF; stroke-width:0; stroke-opacity:1;  stroke-linecap:round; stroke-linejoin:round;"
     id="g5982">
    <circle
       cx="4399.53"
       cy="7329.53"
       r="169.291"
       id="circle5984" />
  </g>
  <g
     style="fill:#FFFFFF; fill-opacity:1.0;  stroke:#FFFFFF; stroke-width:39.3701; stroke-opacity:1;  stroke-linecap:round; stroke-linejoin:round;"
     id="g5986" />
  <g
     style="fill:#FFFFFF; fill-opacity:1.0;  stroke:#FFFFFF; stroke-width:0; stroke-opacity:1;  stroke-linecap:round; stroke-linejoin:round;"
     id="g5988">
    <circle
       cx="8699.53"
       cy="4609.53"
       r="169.291"
       id="circle5990" />
  </g>
  <g
     style="fill:#FFFFFF; fill-opacity:1.0;  stroke:#FFFFFF; stroke-width:39.3701; stroke-opacity:1;  stroke-linecap:round; stroke-linejoin:round;"
     id="g5992" />
  <g
     style="fill:#FFFFFF; fill-opacity:1.0;  stroke:#FFFFFF; stroke-width:0; stroke-opacity:1;  stroke-linecap:round; stroke-linejoin:round;"
     id="g5994">
    <circle
       cx="7189.53"
       cy="5879.53"
       r="169.291"
       id="circle5996" />
  </g>
  <g
     style="fill:#FFFFFF; fill-opacity:1.0;  stroke:#FFFFFF; stroke-width:39.3701; stroke-opacity:1;  stroke-linecap:round; stroke-linejoin:round;"
     id="g5998" />
  <g
     style="fill:#000000; fill-opacity:1.0;  stroke:#000000; stroke-width:39.3701; stroke-opacity:1;  stroke-linecap:round; stroke-linejoin:round;"
     id="g6000" />
</svg>
