<?xml version="1.0" encoding="UTF-8" standalone="no"?>
<svg
   xmlns:dc="http://purl.org/dc/elements/1.1/"
   xmlns:cc="http://creativecommons.org/ns#"
   xmlns:rdf="http://www.w3.org/1999/02/22-rdf-syntax-ns#"
   xmlns:svg="http://www.w3.org/2000/svg"
   xmlns="http://www.w3.org/2000/svg"
   xmlns:sodipodi="http://sodipodi.sourceforge.net/DTD/sodipodi-0.dtd"
   xmlns:inkscape="http://www.inkscape.org/namespaces/inkscape"
   version="1.1"
   width="6.81482cm"
   height="4.02082cm"
   viewBox="0 0 26830 15830 "
   id="svg11784"
   inkscape:version="0.91 r13725"
   sodipodi:docname="matrix_board-F.Cu.svg">
  <metadata
     id="metadata12568">
    <rdf:RDF>
      <cc:Work
         rdf:about="">
        <dc:format>image/svg+xml</dc:format>
        <dc:type
           rdf:resource="http://purl.org/dc/dcmitype/StillImage" />
        <dc:title>SVG Picture created as matrix_board-F.Cu.svg date 2018/12/16 13:29:32 </dc:title>
      </cc:Work>
    </rdf:RDF>
  </metadata>
  <defs
     id="defs12566" />
  <sodipodi:namedview
     pagecolor="#ffffff"
     bordercolor="#666666"
     borderopacity="1"
     objecttolerance="10"
     gridtolerance="10"
     guidetolerance="10"
     inkscape:pageopacity="1"
     inkscape:pageshadow="2"
     inkscape:window-width="1127"
     inkscape:window-height="601"
     id="namedview12564"
     showgrid="false"
     inkscape:zoom="1.1347166"
     inkscape:cx="20.269379"
     inkscape:cy="71.235002"
     inkscape:window-x="287"
     inkscape:window-y="51"
     inkscape:window-maximized="0"
     inkscape:current-layer="svg11784" />
  <title
     id="title11786">SVG Picture created as matrix_board-F.Cu.svg date 2018/12/16 13:29:32 </title>
  <desc
     id="desc11788">Picture generated by PCBNEW </desc>
  <g
     style="fill:#000000; fill-opacity:1;stroke:#000000; stroke-opacity:1; stroke-linecap:round; stroke-linejoin:round; "
     transform="translate(0 0) scale(1 1)"
     id="g11790" />
  <g
     style="fill:#000000; fill-opacity:0.0;  stroke:#000000; stroke-width:-0.000393701; stroke-opacity:1;  stroke-linecap:round; stroke-linejoin:round;"
     id="g11792" />
  <g
     style="fill:#000000; fill-opacity:0.0;  stroke:#000000; stroke-width:0; stroke-opacity:1;  stroke-linecap:round; stroke-linejoin:round;"
     id="g11794" />
  <g
     style="fill:#000000; fill-opacity:1.0;  stroke:#000000; stroke-width:0; stroke-opacity:1;  stroke-linecap:round; stroke-linejoin:round;"
     id="g11796">
    <polyline
       style="fill-rule:evenodd;"
       points="2890,7431 2890,7096 3906,7096 3906,7431 2890,7431 "
       id="polyline11798" />
    <polyline
       style="fill-rule:evenodd;"
       points="4532,7431 4532,7096 5548,7096 5548,7431 4532,7431 "
       id="polyline11800" />
    <polyline
       style="fill-rule:evenodd;"
       points="2890,8218 2890,7883 3906,7883 3906,8218 2890,8218 "
       id="polyline11802" />
    <polyline
       style="fill-rule:evenodd;"
       points="4532,8218 4532,7883 5548,7883 5548,8218 4532,8218 "
       id="polyline11804" />
    <polyline
       style="fill-rule:evenodd;"
       points="2890,9005 2890,8671 3906,8671 3906,9005 2890,9005 "
       id="polyline11806" />
    <polyline
       style="fill-rule:evenodd;"
       points="4532,9005 4532,8671 5548,8671 5548,9005 4532,9005 "
       id="polyline11808" />
    <polyline
       style="fill-rule:evenodd;"
       points="2890,9793 2890,9458 3906,9458 3906,9793 2890,9793 "
       id="polyline11810" />
    <polyline
       style="fill-rule:evenodd;"
       points="4532,9793 4532,9458 5548,9458 5548,9793 4532,9793 "
       id="polyline11812" />
    <polyline
       style="fill-rule:evenodd;"
       points="2890,10580 2890,10246 3906,10246 3906,10580 2890,10580 "
       id="polyline11814" />
    <polyline
       style="fill-rule:evenodd;"
       points="4532,10580 4532,10246 5548,10246 5548,10580 4532,10580 "
       id="polyline11816" />
    <polyline
       style="fill-rule:evenodd;"
       points="2890,11368 2890,11033 3906,11033 3906,11368 2890,11368 "
       id="polyline11818" />
    <polyline
       style="fill-rule:evenodd;"
       points="4532,11368 4532,11033 5548,11033 5548,11368 4532,11368 "
       id="polyline11820" />
    <polyline
       style="fill-rule:evenodd;"
       points="2890,12155 2890,11820 3906,11820 3906,12155 2890,12155 "
       id="polyline11822" />
    <polyline
       style="fill-rule:evenodd;"
       points="4532,12155 4532,11820 5548,11820 5548,12155 4532,12155 "
       id="polyline11824" />
    <polyline
       style="fill-rule:evenodd;"
       points="2890,12942 2890,12608 3906,12608 3906,12942 2890,12942 "
       id="polyline11826" />
    <polyline
       style="fill-rule:evenodd;"
       points="4532,12942 4532,12608 5548,12608 5548,12942 4532,12942 "
       id="polyline11828" />
    <polyline
       style="fill-rule:evenodd;"
       points="17319,2869 17319,3369 16319,3369 16319,2869 17319,2869 "
       id="polyline11830" />
    <polyline
       style="fill-rule:evenodd;"
       points="15170,2869 15170,3369 14170,3369 14170,2869 15170,2869 "
       id="polyline11832" />
    <polyline
       style="fill-rule:evenodd;"
       points="17319,1869 17319,2369 16319,2369 16319,1869 17319,1869 "
       id="polyline11834" />
    <polyline
       style="fill-rule:evenodd;"
       points="15170,1869 15170,2369 14170,2369 14170,1869 15170,1869 "
       id="polyline11836" />
    <polyline
       style="fill-rule:evenodd;"
       points="16305,5574 16305,4865 16934,4865 16934,5574 16305,5574 "
       id="polyline11838" />
    <polyline
       style="fill-rule:evenodd;"
       points="15187,5574 15187,4865 15816,4865 15816,5574 15187,5574 "
       id="polyline11840" />
    <polyline
       style="fill-rule:evenodd;"
       points="16223,7174 16223,6465 16852,6465 16852,7174 16223,7174 "
       id="polyline11842" />
    <polyline
       style="fill-rule:evenodd;"
       points="15105,7174 15105,6465 15734,6465 15734,7174 15105,7174 "
       id="polyline11844" />
    <polyline
       style="fill-rule:evenodd;"
       points="19905,7173 19905,6465 20534,6465 20534,7173 19905,7173 "
       id="polyline11846" />
    <polyline
       style="fill-rule:evenodd;"
       points="21007,7173 21007,6465 21636,6465 21636,7173 21007,7173 "
       id="polyline11848" />
    <polyline
       style="fill-rule:evenodd;"
       points="22370,7269 22370,6769 23370,6769 23370,7269 22370,7269 "
       id="polyline11850" />
    <polyline
       style="fill-rule:evenodd;"
       points="24519,7269 24519,6769 25519,6769 25519,7269 24519,7269 "
       id="polyline11852" />
    <polyline
       style="fill-rule:evenodd;"
       points="22370,8269 22370,7769 23370,7769 23370,8269 22370,8269 "
       id="polyline11854" />
    <polyline
       style="fill-rule:evenodd;"
       points="24519,8269 24519,7769 25519,7769 25519,8269 24519,8269 "
       id="polyline11856" />
    <polyline
       style="fill-rule:evenodd;"
       points="22370,9269 22370,8769 23370,8769 23370,9269 22370,9269 "
       id="polyline11858" />
    <polyline
       style="fill-rule:evenodd;"
       points="24519,9269 24519,8769 25519,8769 25519,9269 24519,9269 "
       id="polyline11860" />
    <polyline
       style="fill-rule:evenodd;"
       points="18346,4574 18346,3865 18975,3865 18975,4574 18346,4574 "
       id="polyline11862" />
    <polyline
       style="fill-rule:evenodd;"
       points="19464,4574 19464,3865 20093,3865 20093,4574 19464,4574 "
       id="polyline11864" />
    <polyline
       style="fill-rule:evenodd;"
       points="11619,1469 12219,1469 12219,2369 11619,2369 11619,1469 "
       id="polyline11866" />
    <polyline
       style="fill-rule:evenodd;"
       points="11619,4069 12219,4069 12219,4969 11619,4969 11619,4069 "
       id="polyline11868" />
    <polyline
       style="fill-rule:evenodd;"
       points="9819,1469 10419,1469 10419,2369 9819,2369 9819,1469 "
       id="polyline11870" />
    <polyline
       style="fill-rule:evenodd;"
       points="9819,4069 10419,4069 10419,4969 9819,4969 9819,4069 "
       id="polyline11872" />
    <polyline
       style="fill-rule:evenodd;"
       points="5619,4069 6219,4069 6219,4969 5619,4969 5619,4069 "
       id="polyline11874" />
    <polyline
       style="fill-rule:evenodd;"
       points="5619,1469 6219,1469 6219,2369 5619,2369 5619,1469 "
       id="polyline11876" />
    <polyline
       style="fill-rule:evenodd;"
       points="7419,4069 8019,4069 8019,4969 7419,4969 7419,4069 "
       id="polyline11878" />
    <polyline
       style="fill-rule:evenodd;"
       points="7419,1469 8019,1469 8019,2369 7419,2369 7419,1469 "
       id="polyline11880" />
    <polyline
       style="fill-rule:evenodd;"
       points="12680,9387 12680,9247 13120,9247 13120,9387 12680,9387 "
       id="polyline11882" />
    <polyline
       style="fill-rule:evenodd;"
       points="12679,9702 12679,9562 13179,9562 13179,9702 12679,9702 "
       id="polyline11884" />
    <polyline
       style="fill-rule:evenodd;"
       points="12679,10017 12679,9877 13179,9877 13179,10017 12679,10017 "
       id="polyline11886" />
    <polyline
       style="fill-rule:evenodd;"
       points="12679,10332 12679,10192 13179,10192 13179,10332 12679,10332 "
       id="polyline11888" />
    <polyline
       style="fill-rule:evenodd;"
       points="12679,10646 12679,10506 13179,10506 13179,10646 12679,10646 "
       id="polyline11890" />
    <polyline
       style="fill-rule:evenodd;"
       points="12679,10961 12679,10821 13179,10821 13179,10961 12679,10961 "
       id="polyline11892" />
    <polyline
       style="fill-rule:evenodd;"
       points="12679,11276 12679,11136 13179,11136 13179,11276 12679,11276 "
       id="polyline11894" />
    <polyline
       style="fill-rule:evenodd;"
       points="12680,11591 12680,11451 13120,11451 13120,11591 12680,11591 "
       id="polyline11896" />
    <polyline
       style="fill-rule:evenodd;"
       points="13447,12358 13447,11918 13587,11918 13587,12358 13447,12358 "
       id="polyline11898" />
    <polyline
       style="fill-rule:evenodd;"
       points="13762,12359 13762,11859 13902,11859 13902,12359 13762,12359 "
       id="polyline11900" />
    <polyline
       style="fill-rule:evenodd;"
       points="14079,12359 14079,11859 14216,11859 14216,12359 14079,12359 "
       id="polyline11902" />
    <polyline
       style="fill-rule:evenodd;"
       points="14394,12359 14394,11859 14531,11859 14531,12359 14394,12359 "
       id="polyline11904" />
    <polyline
       style="fill-rule:evenodd;"
       points="14708,12359 14708,11859 14845,11859 14845,12359 14708,12359 "
       id="polyline11906" />
    <polyline
       style="fill-rule:evenodd;"
       points="15021,12359 15021,11859 15161,11859 15161,12359 15021,12359 "
       id="polyline11908" />
    <polyline
       style="fill-rule:evenodd;"
       points="15336,12359 15336,11859 15476,11859 15476,12359 15336,12359 "
       id="polyline11910" />
    <polyline
       style="fill-rule:evenodd;"
       points="15651,12358 15651,11918 15791,11918 15791,12358 15651,12358 "
       id="polyline11912" />
    <polyline
       style="fill-rule:evenodd;"
       points="16118,11591 16118,11451 16558,11451 16558,11591 16118,11591 "
       id="polyline11914" />
    <polyline
       style="fill-rule:evenodd;"
       points="16059,11276 16059,11136 16559,11136 16559,11276 16059,11276 "
       id="polyline11916" />
    <polyline
       style="fill-rule:evenodd;"
       points="16059,10961 16059,10821 16559,10821 16559,10961 16059,10961 "
       id="polyline11918" />
    <polyline
       style="fill-rule:evenodd;"
       points="16059,10646 16059,10506 16559,10506 16559,10646 16059,10646 "
       id="polyline11920" />
    <polyline
       style="fill-rule:evenodd;"
       points="16059,10332 16059,10192 16559,10192 16559,10332 16059,10332 "
       id="polyline11922" />
    <polyline
       style="fill-rule:evenodd;"
       points="16059,10017 16059,9877 16559,9877 16559,10017 16059,10017 "
       id="polyline11924" />
    <polyline
       style="fill-rule:evenodd;"
       points="16059,9702 16059,9562 16559,9562 16559,9702 16059,9702 "
       id="polyline11926" />
    <polyline
       style="fill-rule:evenodd;"
       points="16118,9387 16118,9247 16558,9247 16558,9387 16118,9387 "
       id="polyline11928" />
    <polyline
       style="fill-rule:evenodd;"
       points="15651,8920 15651,8480 15791,8480 15791,8920 15651,8920 "
       id="polyline11930" />
    <polyline
       style="fill-rule:evenodd;"
       points="15336,8979 15336,8479 15476,8479 15476,8979 15336,8979 "
       id="polyline11932" />
    <polyline
       style="fill-rule:evenodd;"
       points="15021,8979 15021,8479 15161,8479 15161,8979 15021,8979 "
       id="polyline11934" />
    <polyline
       style="fill-rule:evenodd;"
       points="14708,8979 14708,8479 14845,8479 14845,8979 14708,8979 "
       id="polyline11936" />
    <polyline
       style="fill-rule:evenodd;"
       points="14394,8979 14394,8479 14531,8479 14531,8979 14394,8979 "
       id="polyline11938" />
    <polyline
       style="fill-rule:evenodd;"
       points="14079,8979 14079,8479 14216,8479 14216,8979 14079,8979 "
       id="polyline11940" />
    <polyline
       style="fill-rule:evenodd;"
       points="13762,8979 13762,8479 13902,8479 13902,8979 13762,8979 "
       id="polyline11942" />
    <polyline
       style="fill-rule:evenodd;"
       points="13447,8920 13447,8480 13587,8480 13587,8920 13447,8920 "
       id="polyline11944" />
    <polyline
       style="fill-rule:evenodd;"
       points="18387,2374 18387,1665 19016,1665 19016,2374 18387,2374 "
       id="polyline11946" />
    <polyline
       style="fill-rule:evenodd;"
       points="19505,2374 19505,1665 20134,1665 20134,2374 19505,2374 "
       id="polyline11948" />
    <circle
       cx="1819.69"
       cy="10219.7"
       r="314.961"
       id="circle11950" />
  </g>
  <g
     style="fill:#000000; fill-opacity:1.0;  stroke:#000000; stroke-width:39.3701; stroke-opacity:1;  stroke-linecap:round; stroke-linejoin:round;"
     id="g11952" />
  <g
     style="fill:#000000; fill-opacity:1.0;  stroke:#000000; stroke-width:0; stroke-opacity:1;  stroke-linecap:round; stroke-linejoin:round;"
     id="g11954">
    <circle
       cx="17619.7"
       cy="9619.69"
       r="314.961"
       id="circle11956" />
  </g>
  <g
     style="fill:#000000; fill-opacity:1.0;  stroke:#000000; stroke-width:39.3701; stroke-opacity:1;  stroke-linecap:round; stroke-linejoin:round;"
     id="g11958" />
  <g
     style="fill:#000000; fill-opacity:1.0;  stroke:#000000; stroke-width:0; stroke-opacity:1;  stroke-linecap:round; stroke-linejoin:round;"
     id="g11960">
    <circle
       cx="17619.7"
       cy="8619.69"
       r="314.961"
       id="circle11962" />
  </g>
  <g
     style="fill:#000000; fill-opacity:1.0;  stroke:#000000; stroke-width:39.3701; stroke-opacity:1;  stroke-linecap:round; stroke-linejoin:round;"
     id="g11964" />
  <g
     style="fill:#000000; fill-opacity:1.0;  stroke:#000000; stroke-width:0; stroke-opacity:1;  stroke-linecap:round; stroke-linejoin:round;"
     id="g11966">
    <circle
       cx="19419.7"
       cy="9619.69"
       r="314.961"
       id="circle11968" />
  </g>
  <g
     style="fill:#000000; fill-opacity:1.0;  stroke:#000000; stroke-width:39.3701; stroke-opacity:1;  stroke-linecap:round; stroke-linejoin:round;"
     id="g11970" />
  <g
     style="fill:#000000; fill-opacity:1.0;  stroke:#000000; stroke-width:0; stroke-opacity:1;  stroke-linecap:round; stroke-linejoin:round;"
     id="g11972">
    <circle
       cx="11619.7"
       cy="9819.69"
       r="334.646"
       id="circle11974" />
  </g>
  <g
     style="fill:#000000; fill-opacity:1.0;  stroke:#000000; stroke-width:39.3701; stroke-opacity:1;  stroke-linecap:round; stroke-linejoin:round;"
     id="g11976" />
  <g
     style="fill:#000000; fill-opacity:1.0;  stroke:#000000; stroke-width:0; stroke-opacity:1;  stroke-linecap:round; stroke-linejoin:round;"
     id="g11978">
    <circle
       cx="5019.69"
       cy="14019.7"
       r="314.961"
       id="circle11980" />
  </g>
  <g
     style="fill:#000000; fill-opacity:1.0;  stroke:#000000; stroke-width:39.3701; stroke-opacity:1;  stroke-linecap:round; stroke-linejoin:round;"
     id="g11982" />
  <g
     style="fill:#000000; fill-opacity:1.0;  stroke:#000000; stroke-width:0; stroke-opacity:1;  stroke-linecap:round; stroke-linejoin:round;"
     id="g11984">
    <circle
       cx="16219.7"
       cy="4019.69"
       r="314.961"
       id="circle11986" />
  </g>
  <g
     style="fill:#000000; fill-opacity:1.0;  stroke:#000000; stroke-width:39.3701; stroke-opacity:1;  stroke-linecap:round; stroke-linejoin:round;"
     id="g11988" />
  <g
     style="fill:#000000; fill-opacity:1.0;  stroke:#000000; stroke-width:0; stroke-opacity:1;  stroke-linecap:round; stroke-linejoin:round;"
     id="g11990">
    <circle
       cx="11619.7"
       cy="11019.7"
       r="314.961"
       id="circle11992" />
  </g>
  <g
     style="fill:#000000; fill-opacity:1.0;  stroke:#000000; stroke-width:39.3701; stroke-opacity:1;  stroke-linecap:round; stroke-linejoin:round;"
     id="g11994" />
  <g
     style="fill:#000000; fill-opacity:1.0;  stroke:#000000; stroke-width:0; stroke-opacity:1;  stroke-linecap:round; stroke-linejoin:round;"
     id="g11996">
    <circle
       cx="6389.69"
       cy="10819.7"
       r="314.961"
       id="circle11998" />
  </g>
  <g
     style="fill:#000000; fill-opacity:1.0;  stroke:#000000; stroke-width:39.3701; stroke-opacity:1;  stroke-linecap:round; stroke-linejoin:round;"
     id="g12000" />
  <g
     style="fill:#000000; fill-opacity:1.0;  stroke:#000000; stroke-width:0; stroke-opacity:1;  stroke-linecap:round; stroke-linejoin:round;"
     id="g12002">
    <circle
       cx="1819.69"
       cy="11419.7"
       r="314.961"
       id="circle12004" />
  </g>
  <g
     style="fill:#000000; fill-opacity:1.0;  stroke:#000000; stroke-width:39.3701; stroke-opacity:1;  stroke-linecap:round; stroke-linejoin:round;"
     id="g12006" />
  <g
     style="fill:#000000; fill-opacity:1.0;  stroke:#000000; stroke-width:0; stroke-opacity:1;  stroke-linecap:round; stroke-linejoin:round;"
     id="g12008">
    <circle
       cx="16619.7"
       cy="7819.69"
       r="314.961"
       id="circle12010" />
  </g>
  <g
     style="fill:#000000; fill-opacity:1.0;  stroke:#000000; stroke-width:39.3701; stroke-opacity:1;  stroke-linecap:round; stroke-linejoin:round;"
     id="g12012" />
  <g
     style="fill:#000000; fill-opacity:1.0;  stroke:#000000; stroke-width:0; stroke-opacity:1;  stroke-linecap:round; stroke-linejoin:round;"
     id="g12014">
    <circle
       cx="6219.69"
       cy="11819.7"
       r="314.961"
       id="circle12016" />
  </g>
  <g
     style="fill:#000000; fill-opacity:1.0;  stroke:#000000; stroke-width:39.3701; stroke-opacity:1;  stroke-linecap:round; stroke-linejoin:round;"
     id="g12018" />
  <g
     style="fill:#000000; fill-opacity:1.0;  stroke:#000000; stroke-width:0; stroke-opacity:1;  stroke-linecap:round; stroke-linejoin:round;"
     id="g12020">
    <circle
       cx="15619.7"
       cy="7819.69"
       r="314.961"
       id="circle12022" />
  </g>
  <g
     style="fill:#000000; fill-opacity:1.0;  stroke:#000000; stroke-width:39.3701; stroke-opacity:1;  stroke-linecap:round; stroke-linejoin:round;"
     id="g12024" />
  <g
     style="fill:#000000; fill-opacity:1.0;  stroke:#000000; stroke-width:98.4252; stroke-opacity:1;  stroke-linecap:round; stroke-linejoin:round;"
     id="g12026" />
  <g
     style="fill:#000000; fill-opacity:0.0;  stroke:#000000; stroke-width:98.4252; stroke-opacity:1;  stroke-linecap:round; stroke-linejoin:round;"
     id="g12028">
    <path
       d="M19819 1979 L19819 2019 "
       id="path12030" />
    <path
       d="M18925 1085 L19819 1979 "
       id="path12032" />
    <path
       d="M9851 8051 L11619 9819 "
       id="path12034" />
    <path
       d="M5040 8051 L9851 8051 "
       id="path12036" />
    <path
       d="M15552 1085 L15619 1085 "
       id="path12038" />
    <path
       d="M15619 1085 L18925 1085 "
       id="path12040" />
    <path
       d="M14670 3119 L14670 2119 "
       id="path12042" />
    <path
       d="M15356 1085 L15419 1085 "
       id="path12044" />
    <path
       d="M14670 2119 L14670 1771 "
       id="path12046" />
    <path
       d="M14670 1771 L15356 1085 "
       id="path12048" />
    <path
       d="M15419 1085 L15619 1085 "
       id="path12050" />
    <path
       d="M4434 8051 L4055 8429 "
       id="path12052" />
    <path
       d="M5040 8051 L4434 8051 "
       id="path12054" />
    <path
       d="M2684 8505 L2684 9958 "
       id="path12056" />
    <path
       d="M2684 9958 L2755 10029 "
       id="path12058" />
    <path
       d="M2760 8429 L2684 8505 "
       id="path12060" />
    <path
       d="M4055 8429 L2760 8429 "
       id="path12062" />
    <path
       d="M4434 9625 L5040 9625 "
       id="path12064" />
    <path
       d="M4030 10029 L4434 9625 "
       id="path12066" />
    <path
       d="M2755 10029 L4030 10029 "
       id="path12068" />
    <path
       d="M12472 10055 L12472 10482 "
       id="path12070" />
    <path
       d="M12581 9947 L12472 10055 "
       id="path12072" />
    <path
       d="M12929 9947 L12581 9947 "
       id="path12074" />
    <path
       d="M12566 10576 L12929 10576 "
       id="path12076" />
    <path
       d="M12472 10482 L12566 10576 "
       id="path12078" />
    <path
       d="M12329 10055 L12472 10055 "
       id="path12080" />
    <path
       d="M12092 9819 L12329 10055 "
       id="path12082" />
    <path
       d="M11619 9819 L12092 9819 "
       id="path12084" />
    <path
       d="M20219 6780 L20219 6819 "
       id="path12086" />
    <path
       d="M20740 6258 L20219 6780 "
       id="path12088" />
    <path
       d="M25381 6258 L20740 6258 "
       id="path12090" />
    <path
       d="M25726 6604 L25381 6258 "
       id="path12092" />
    <path
       d="M25726 8911 L25726 6604 "
       id="path12094" />
    <path
       d="M25618 9019 L25726 8911 "
       id="path12096" />
    <path
       d="M25019 9019 L25618 9019 "
       id="path12098" />
    <path
       d="M19819 2472 L19819 2019 "
       id="path12100" />
    <path
       d="M20299 2952 L19819 2472 "
       id="path12102" />
    <path
       d="M20299 6287 L20299 2952 "
       id="path12104" />
    <path
       d="M20219 6367 L20299 6287 "
       id="path12106" />
    <path
       d="M20219 6819 L20219 6367 "
       id="path12108" />
    <path
       d="M19104 9934 L19419 9619 "
       id="path12110" />
    <path
       d="M18898 10141 L19104 9934 "
       id="path12112" />
    <path
       d="M16779 10141 L18898 10141 "
       id="path12114" />
    <path
       d="M16658 10262 L16779 10141 "
       id="path12116" />
    <path
       d="M16309 10262 L16658 10262 "
       id="path12118" />
    <path
       d="M19104 8973 L16950 6819 "
       id="path12120" />
    <path
       d="M19104 9304 L19104 8973 "
       id="path12122" />
    <path
       d="M16950 6819 L16537 6819 "
       id="path12124" />
    <path
       d="M19419 9619 L19104 9304 "
       id="path12126" />
    <path
       d="M1298 9892 L2684 8505 "
       id="path12128" />
    <path
       d="M1298 12968 L1298 9892 "
       id="path12130" />
    <path
       d="M3383 15053 L1298 12968 "
       id="path12132" />
    <path
       d="M19334 15053 L3383 15053 "
       id="path12134" />
    <path
       d="M25019 9368 L19334 15053 "
       id="path12136" />
    <path
       d="M25019 9019 L25019 9368 "
       id="path12138" />
    <path
       d="M5040 13998 L5019 14019 "
       id="path12140" />
    <path
       d="M5040 12775 L5040 13998 "
       id="path12142" />
    <path
       d="M17571 4219 L16819 3468 "
       id="path12144" />
    <path
       d="M16819 3468 L16819 3119 "
       id="path12146" />
    <path
       d="M18660 4219 L17571 4219 "
       id="path12148" />
    <path
       d="M16771 3468 L16219 4019 "
       id="path12150" />
    <path
       d="M16819 3468 L16771 3468 "
       id="path12152" />
    <path
       d="M11919 2069 L11919 1919 "
       id="path12154" />
    <path
       d="M13869 4019 L11919 2069 "
       id="path12156" />
    <path
       d="M16219 4019 L13869 4019 "
       id="path12158" />
    <path
       d="M16819 3119 L16819 2119 "
       id="path12160" />
    <path
       d="M11619 11019 L12065 11019 "
       id="path12162" />
    <path
       d="M12065 11019 L12193 10891 "
       id="path12164" />
    <path
       d="M12193 10891 L12581 10891 "
       id="path12166" />
    <path
       d="M12581 10891 L12929 10891 "
       id="path12168" />
    <path
       d="M13278 10891 L12929 10891 "
       id="path12170" />
    <path
       d="M13306 10891 L13278 10891 "
       id="path12172" />
    <path
       d="M13386 10812 L13306 10891 "
       id="path12174" />
    <path
       d="M13386 10341 L13386 10812 "
       id="path12176" />
    <path
       d="M13307 10262 L13386 10341 "
       id="path12178" />
    <path
       d="M12929 10262 L13307 10262 "
       id="path12180" />
    <path
       d="M13781 11206 L13386 10812 "
       id="path12182" />
    <path
       d="M16309 11206 L13781 11206 "
       id="path12184" />
    <path
       d="M8118 1919 L7719 1919 "
       id="path12186" />
    <path
       d="M8774 1262 L8118 1919 "
       id="path12188" />
    <path
       d="M10864 1262 L8774 1262 "
       id="path12190" />
    <path
       d="M11521 1919 L10864 1262 "
       id="path12192" />
    <path
       d="M11919 1919 L11521 1919 "
       id="path12194" />
    <path
       d="M21734 6819 L21321 6819 "
       id="path12196" />
    <path
       d="M24421 7019 L23964 6562 "
       id="path12198" />
    <path
       d="M21991 6562 L21734 6819 "
       id="path12200" />
    <path
       d="M23964 6562 L21991 6562 "
       id="path12202" />
    <path
       d="M25019 7019 L24421 7019 "
       id="path12204" />
    <path
       d="M18660 4672 L18660 4219 "
       id="path12206" />
    <path
       d="M18660 6301 L18660 4672 "
       id="path12208" />
    <path
       d="M19739 7380 L18660 6301 "
       id="path12210" />
    <path
       d="M21321 6859 L20800 7380 "
       id="path12212" />
    <path
       d="M20800 7380 L19739 7380 "
       id="path12214" />
    <path
       d="M21321 6819 L21321 6859 "
       id="path12216" />
    <path
       d="M13349 8700 L13517 8700 "
       id="path12218" />
    <path
       d="M11538 6889 L13349 8700 "
       id="path12220" />
    <path
       d="M4379 6889 L11538 6889 "
       id="path12222" />
    <path
       d="M4005 7263 L4379 6889 "
       id="path12224" />
    <path
       d="M3398 7263 L4005 7263 "
       id="path12226" />
    <path
       d="M12900 9149 L12900 9317 "
       id="path12228" />
    <path
       d="M11015 7263 L12900 9149 "
       id="path12230" />
    <path
       d="M5040 7263 L11015 7263 "
       id="path12232" />
    <path
       d="M12581 9632 L12929 9632 "
       id="path12234" />
    <path
       d="M12553 9632 L12581 9632 "
       id="path12236" />
    <path
       d="M10598 7677 L12553 9632 "
       id="path12238" />
    <path
       d="M4379 7677 L10598 7677 "
       id="path12240" />
    <path
       d="M4005 8051 L4379 7677 "
       id="path12242" />
    <path
       d="M3398 8051 L4005 8051 "
       id="path12244" />
    <path
       d="M4005 8838 L3398 8838 "
       id="path12246" />
    <path
       d="M4008 8838 L4005 8838 "
       id="path12248" />
    <path
       d="M4422 8425 L4008 8838 "
       id="path12250" />
    <path
       d="M5674 8425 L4422 8425 "
       id="path12252" />
    <path
       d="M9387 12138 L5674 8425 "
       id="path12254" />
    <path
       d="M13517 12138 L9387 12138 "
       id="path12256" />
    <path
       d="M5040 8838 L5725 8838 "
       id="path12258" />
    <path
       d="M13832 12458 L13832 12109 "
       id="path12260" />
    <path
       d="M13725 12565 L13832 12458 "
       id="path12262" />
    <path
       d="M9452 12565 L13725 12565 "
       id="path12264" />
    <path
       d="M5725 8838 L9452 12565 "
       id="path12266" />
    <path
       d="M14147 12458 L14147 12109 "
       id="path12268" />
    <path
       d="M14147 12505 L14147 12458 "
       id="path12270" />
    <path
       d="M13831 12821 L14147 12505 "
       id="path12272" />
    <path
       d="M9341 12821 L13831 12821 "
       id="path12274" />
    <path
       d="M3398 9625 L4005 9625 "
       id="path12276" />
    <path
       d="M4005 9625 L4379 9251 "
       id="path12278" />
    <path
       d="M5777 9257 L9341 12821 "
       id="path12280" />
    <path
       d="M5777 9251 L5777 9257 "
       id="path12282" />
    <path
       d="M4379 9251 L5777 9251 "
       id="path12284" />
    <path
       d="M17606 9632 L17619 9619 "
       id="path12286" />
    <path
       d="M16309 9632 L17606 9632 "
       id="path12288" />
    <path
       d="M2792 10413 L3398 10413 "
       id="path12290" />
    <path
       d="M2458 10413 L2792 10413 "
       id="path12292" />
    <path
       d="M2265 10219 L2458 10413 "
       id="path12294" />
    <path
       d="M1819 10219 L2265 10219 "
       id="path12296" />
    <path
       d="M16921 9317 L17619 8619 "
       id="path12298" />
    <path
       d="M16338 9317 L16921 9317 "
       id="path12300" />
    <path
       d="M5983 10413 L5040 10413 "
       id="path12302" />
    <path
       d="M6389 10819 L5983 10413 "
       id="path12304" />
    <path
       d="M16452 7819 L16619 7819 "
       id="path12306" />
    <path
       d="M15721 8550 L16452 7819 "
       id="path12308" />
    <path
       d="M15721 8700 L15721 8550 "
       id="path12310" />
    <path
       d="M2039 11199 L1819 11419 "
       id="path12312" />
    <path
       d="M2792 11200 L2791 11199 "
       id="path12314" />
    <path
       d="M2791 11199 L2039 11199 "
       id="path12316" />
    <path
       d="M3398 11200 L2792 11200 "
       id="path12318" />
    <path
       d="M5904 11504 L6219 11819 "
       id="path12320" />
    <path
       d="M5600 11200 L5904 11504 "
       id="path12322" />
    <path
       d="M5040 11200 L5600 11200 "
       id="path12324" />
    <path
       d="M15406 8032 L15619 7819 "
       id="path12326" />
    <path
       d="M15406 8729 L15406 8032 "
       id="path12328" />
    <path
       d="M4005 11988 L3398 11988 "
       id="path12330" />
    <path
       d="M5882 12362 L4379 12362 "
       id="path12332" />
    <path
       d="M6669 13149 L5882 12362 "
       id="path12334" />
    <path
       d="M13865 13149 L6669 13149 "
       id="path12336" />
    <path
       d="M4379 12362 L4005 11988 "
       id="path12338" />
    <path
       d="M14462 12551 L13865 13149 "
       id="path12340" />
    <path
       d="M14462 12109 L14462 12551 "
       id="path12342" />
    <path
       d="M4434 11988 L5040 11988 "
       id="path12344" />
    <path
       d="M4060 11614 L4434 11988 "
       id="path12346" />
    <path
       d="M2725 11614 L4060 11614 "
       id="path12348" />
    <path
       d="M2684 11655 L2725 11614 "
       id="path12350" />
    <path
       d="M2684 13108 L2684 11655 "
       id="path12352" />
    <path
       d="M4373 14797 L2684 13108 "
       id="path12354" />
    <path
       d="M12962 14797 L4373 14797 "
       id="path12356" />
    <path
       d="M15091 12667 L12962 14797 "
       id="path12358" />
    <path
       d="M15091 12109 L15091 12667 "
       id="path12360" />
    <path
       d="M14776 12599 L12835 14541 "
       id="path12362" />
    <path
       d="M14776 12109 L14776 12599 "
       id="path12364" />
    <path
       d="M3398 13041 L3398 12775 "
       id="path12366" />
    <path
       d="M3398 13170 L3398 13041 "
       id="path12368" />
    <path
       d="M4769 14541 L3398 13170 "
       id="path12370" />
    <path
       d="M12835 14541 L4769 14541 "
       id="path12372" />
    <path
       d="M23120 7019 L22870 7019 "
       id="path12374" />
    <path
       d="M23833 7732 L23120 7019 "
       id="path12376" />
    <path
       d="M23833 9541 L23833 7732 "
       id="path12378" />
    <path
       d="M21235 12138 L23833 9541 "
       id="path12380" />
    <path
       d="M15721 12138 L21235 12138 "
       id="path12382" />
    <path
       d="M23120 8019 L22870 8019 "
       id="path12384" />
    <path
       d="M23577 9435 L23577 8476 "
       id="path12386" />
    <path
       d="M23577 8476 L23120 8019 "
       id="path12388" />
    <path
       d="M21490 11521 L23577 9435 "
       id="path12390" />
    <path
       d="M16338 11521 L21490 11521 "
       id="path12392" />
    <path
       d="M21170 12565 L24159 9576 "
       id="path12394" />
    <path
       d="M15486 12565 L21170 12565 "
       id="path12396" />
    <path
       d="M15406 12485 L15486 12565 "
       id="path12398" />
    <path
       d="M15406 12109 L15406 12485 "
       id="path12400" />
    <path
       d="M24769 8019 L25019 8019 "
       id="path12402" />
    <path
       d="M24159 8629 L24769 8019 "
       id="path12404" />
    <path
       d="M24159 9576 L24159 8629 "
       id="path12406" />
    <path
       d="M14462 5297 L14462 8729 "
       id="path12408" />
    <path
       d="M17140 4699 L17099 4658 "
       id="path12410" />
    <path
       d="M19512 9019 L17140 6648 "
       id="path12412" />
    <path
       d="M17099 4658 L15021 4658 "
       id="path12414" />
    <path
       d="M17140 6648 L17140 4699 "
       id="path12416" />
    <path
       d="M22870 9019 L19512 9019 "
       id="path12418" />
    <path
       d="M15021 4738 L14462 5297 "
       id="path12420" />
    <path
       d="M15021 4658 L15021 4738 "
       id="path12422" />
    <path
       d="M19778 4179 L19778 4219 "
       id="path12424" />
    <path
       d="M19365 3766 L19778 4179 "
       id="path12426" />
    <path
       d="M19325 3766 L19365 3766 "
       id="path12428" />
    <path
       d="M18701 3142 L19325 3766 "
       id="path12430" />
    <path
       d="M18701 2019 L18701 3142 "
       id="path12432" />
    <path
       d="M15419 6459 L16619 5259 "
       id="path12434" />
    <path
       d="M16619 5259 L16619 5219 "
       id="path12436" />
    <path
       d="M15419 6819 L15419 6459 "
       id="path12438" />
    <path
       d="M15091 8381 L15091 8729 "
       id="path12440" />
    <path
       d="M15091 8354 L15091 8381 "
       id="path12442" />
    <path
       d="M14898 8160 L15091 8354 "
       id="path12444" />
    <path
       d="M14898 6275 L14898 8160 "
       id="path12446" />
    <path
       d="M15501 5672 L14898 6275 "
       id="path12448" />
    <path
       d="M15501 5219 L15501 5672 "
       id="path12450" />
    <path
       d="M10855 6377 L12247 6377 "
       id="path12452" />
    <path
       d="M9612 2974 L9612 5135 "
       id="path12454" />
    <path
       d="M10119 2468 L9612 2974 "
       id="path12456" />
    <path
       d="M9612 5135 L10855 6377 "
       id="path12458" />
    <path
       d="M10119 1919 L10119 2468 "
       id="path12460" />
    <path
       d="M14147 8277 L14147 8729 "
       id="path12462" />
    <path
       d="M12247 6377 L14147 8277 "
       id="path12464" />
    <path
       d="M13832 8381 L13832 8729 "
       id="path12466" />
    <path
       d="M13832 8353 L13832 8381 "
       id="path12468" />
    <path
       d="M12112 6633 L13832 8353 "
       id="path12470" />
    <path
       d="M6911 6633 L12112 6633 "
       id="path12472" />
    <path
       d="M5412 5135 L6911 6633 "
       id="path12474" />
    <path
       d="M5412 2974 L5412 5135 "
       id="path12476" />
    <path
       d="M5919 2468 L5412 2974 "
       id="path12478" />
    <path
       d="M5919 1919 L5919 2468 "
       id="path12480" />
  </g>
  <g
     style="fill:#FFFFFF; fill-opacity:0.0;  stroke:#FFFFFF; stroke-width:98.4252; stroke-opacity:1;  stroke-linecap:round; stroke-linejoin:round;"
     id="g12482" />
  <g
     style="fill:#FFFFFF; fill-opacity:1.0;  stroke:#FFFFFF; stroke-width:0; stroke-opacity:1;  stroke-linecap:round; stroke-linejoin:round;"
     id="g12484">
    <circle
       cx="1819.69"
       cy="10219.7"
       r="175.197"
       id="circle12486" />
  </g>
  <g
     style="fill:#FFFFFF; fill-opacity:1.0;  stroke:#FFFFFF; stroke-width:39.3701; stroke-opacity:1;  stroke-linecap:round; stroke-linejoin:round;"
     id="g12488" />
  <g
     style="fill:#FFFFFF; fill-opacity:1.0;  stroke:#FFFFFF; stroke-width:0; stroke-opacity:1;  stroke-linecap:round; stroke-linejoin:round;"
     id="g12490">
    <circle
       cx="17619.7"
       cy="9619.69"
       r="175.197"
       id="circle12492" />
  </g>
  <g
     style="fill:#FFFFFF; fill-opacity:1.0;  stroke:#FFFFFF; stroke-width:39.3701; stroke-opacity:1;  stroke-linecap:round; stroke-linejoin:round;"
     id="g12494" />
  <g
     style="fill:#FFFFFF; fill-opacity:1.0;  stroke:#FFFFFF; stroke-width:0; stroke-opacity:1;  stroke-linecap:round; stroke-linejoin:round;"
     id="g12496">
    <circle
       cx="17619.7"
       cy="8619.69"
       r="175.197"
       id="circle12498" />
  </g>
  <g
     style="fill:#FFFFFF; fill-opacity:1.0;  stroke:#FFFFFF; stroke-width:39.3701; stroke-opacity:1;  stroke-linecap:round; stroke-linejoin:round;"
     id="g12500" />
  <g
     style="fill:#FFFFFF; fill-opacity:1.0;  stroke:#FFFFFF; stroke-width:0; stroke-opacity:1;  stroke-linecap:round; stroke-linejoin:round;"
     id="g12502">
    <circle
       cx="19419.7"
       cy="9619.69"
       r="175.197"
       id="circle12504" />
  </g>
  <g
     style="fill:#FFFFFF; fill-opacity:1.0;  stroke:#FFFFFF; stroke-width:39.3701; stroke-opacity:1;  stroke-linecap:round; stroke-linejoin:round;"
     id="g12506" />
  <g
     style="fill:#FFFFFF; fill-opacity:1.0;  stroke:#FFFFFF; stroke-width:0; stroke-opacity:1;  stroke-linecap:round; stroke-linejoin:round;"
     id="g12508">
    <circle
       cx="11619.7"
       cy="9819.69"
       r="175.197"
       id="circle12510" />
  </g>
  <g
     style="fill:#FFFFFF; fill-opacity:1.0;  stroke:#FFFFFF; stroke-width:39.3701; stroke-opacity:1;  stroke-linecap:round; stroke-linejoin:round;"
     id="g12512" />
  <g
     style="fill:#FFFFFF; fill-opacity:1.0;  stroke:#FFFFFF; stroke-width:0; stroke-opacity:1;  stroke-linecap:round; stroke-linejoin:round;"
     id="g12514">
    <circle
       cx="5019.69"
       cy="14019.7"
       r="175.197"
       id="circle12516" />
  </g>
  <g
     style="fill:#FFFFFF; fill-opacity:1.0;  stroke:#FFFFFF; stroke-width:39.3701; stroke-opacity:1;  stroke-linecap:round; stroke-linejoin:round;"
     id="g12518" />
  <g
     style="fill:#FFFFFF; fill-opacity:1.0;  stroke:#FFFFFF; stroke-width:0; stroke-opacity:1;  stroke-linecap:round; stroke-linejoin:round;"
     id="g12520">
    <circle
       cx="16219.7"
       cy="4019.69"
       r="175.197"
       id="circle12522" />
  </g>
  <g
     style="fill:#FFFFFF; fill-opacity:1.0;  stroke:#FFFFFF; stroke-width:39.3701; stroke-opacity:1;  stroke-linecap:round; stroke-linejoin:round;"
     id="g12524" />
  <g
     style="fill:#FFFFFF; fill-opacity:1.0;  stroke:#FFFFFF; stroke-width:0; stroke-opacity:1;  stroke-linecap:round; stroke-linejoin:round;"
     id="g12526">
    <circle
       cx="11619.7"
       cy="11019.7"
       r="175.197"
       id="circle12528" />
  </g>
  <g
     style="fill:#FFFFFF; fill-opacity:1.0;  stroke:#FFFFFF; stroke-width:39.3701; stroke-opacity:1;  stroke-linecap:round; stroke-linejoin:round;"
     id="g12530" />
  <g
     style="fill:#FFFFFF; fill-opacity:1.0;  stroke:#FFFFFF; stroke-width:0; stroke-opacity:1;  stroke-linecap:round; stroke-linejoin:round;"
     id="g12532">
    <circle
       cx="6389.69"
       cy="10819.7"
       r="175.197"
       id="circle12534" />
  </g>
  <g
     style="fill:#FFFFFF; fill-opacity:1.0;  stroke:#FFFFFF; stroke-width:39.3701; stroke-opacity:1;  stroke-linecap:round; stroke-linejoin:round;"
     id="g12536" />
  <g
     style="fill:#FFFFFF; fill-opacity:1.0;  stroke:#FFFFFF; stroke-width:0; stroke-opacity:1;  stroke-linecap:round; stroke-linejoin:round;"
     id="g12538">
    <circle
       cx="1819.69"
       cy="11419.7"
       r="175.197"
       id="circle12540" />
  </g>
  <g
     style="fill:#FFFFFF; fill-opacity:1.0;  stroke:#FFFFFF; stroke-width:39.3701; stroke-opacity:1;  stroke-linecap:round; stroke-linejoin:round;"
     id="g12542" />
  <g
     style="fill:#FFFFFF; fill-opacity:1.0;  stroke:#FFFFFF; stroke-width:0; stroke-opacity:1;  stroke-linecap:round; stroke-linejoin:round;"
     id="g12544">
    <circle
       cx="16619.7"
       cy="7819.69"
       r="175.197"
       id="circle12546" />
  </g>
  <g
     style="fill:#FFFFFF; fill-opacity:1.0;  stroke:#FFFFFF; stroke-width:39.3701; stroke-opacity:1;  stroke-linecap:round; stroke-linejoin:round;"
     id="g12548" />
  <g
     style="fill:#FFFFFF; fill-opacity:1.0;  stroke:#FFFFFF; stroke-width:0; stroke-opacity:1;  stroke-linecap:round; stroke-linejoin:round;"
     id="g12550">
    <circle
       cx="6219.69"
       cy="11819.7"
       r="175.197"
       id="circle12552" />
  </g>
  <g
     style="fill:#FFFFFF; fill-opacity:1.0;  stroke:#FFFFFF; stroke-width:39.3701; stroke-opacity:1;  stroke-linecap:round; stroke-linejoin:round;"
     id="g12554" />
  <g
     style="fill:#FFFFFF; fill-opacity:1.0;  stroke:#FFFFFF; stroke-width:0; stroke-opacity:1;  stroke-linecap:round; stroke-linejoin:round;"
     id="g12556">
    <circle
       cx="15619.7"
       cy="7819.69"
       r="175.197"
       id="circle12558" />
  </g>
  <g
     style="fill:#FFFFFF; fill-opacity:1.0;  stroke:#FFFFFF; stroke-width:39.3701; stroke-opacity:1;  stroke-linecap:round; stroke-linejoin:round;"
     id="g12560" />
  <g
     style="fill:#000000; fill-opacity:1.0;  stroke:#000000; stroke-width:39.3701; stroke-opacity:1;  stroke-linecap:round; stroke-linejoin:round;"
     id="g12562" />
</svg>
