<?xml version="1.0" encoding="UTF-8" standalone="no"?>
<svg
   xmlns:dc="http://purl.org/dc/elements/1.1/"
   xmlns:cc="http://creativecommons.org/ns#"
   xmlns:rdf="http://www.w3.org/1999/02/22-rdf-syntax-ns#"
   xmlns:svg="http://www.w3.org/2000/svg"
   xmlns="http://www.w3.org/2000/svg"
   xmlns:sodipodi="http://sodipodi.sourceforge.net/DTD/sodipodi-0.dtd"
   xmlns:inkscape="http://www.inkscape.org/namespaces/inkscape"
   version="1.1"
   width="4.8387cm"
   height="2.6162cm"
   viewBox="0 0 19050 10300 "
   id="svg13758"
   inkscape:version="0.91 r13725"
   sodipodi:docname="matrix_board-F.Cu.svg"
   inkscape:export-filename="/Users/jguillette/Documents/htmaa/led_matrix_board/matrix_board-F.Cu.png"
   inkscape:export-xdpi="2000"
   inkscape:export-ydpi="2000">
  <metadata
     id="metadata14464">
    <rdf:RDF>
      <cc:Work
         rdf:about="">
        <dc:format>image/svg+xml</dc:format>
        <dc:type
           rdf:resource="http://purl.org/dc/dcmitype/StillImage" />
        <dc:title>SVG Picture created as matrix_board-F.Cu.svg date 2018/12/14 21:30:42 </dc:title>
      </cc:Work>
    </rdf:RDF>
  </metadata>
  <defs
     id="defs14462" />
  <sodipodi:namedview
     pagecolor="#ffffff"
     bordercolor="#666666"
     borderopacity="1"
     objecttolerance="10"
     gridtolerance="10"
     guidetolerance="10"
     inkscape:pageopacity="1"
     inkscape:pageshadow="2"
     inkscape:window-width="1170"
     inkscape:window-height="760"
     id="namedview14460"
     showgrid="false"
     inkscape:zoom="1.5981336"
     inkscape:cx="13.766058"
     inkscape:cy="46.349999"
     inkscape:window-x="0"
     inkscape:window-y="0"
     inkscape:window-maximized="0"
     inkscape:current-layer="svg13758" />
  <title
     id="title13760">SVG Picture created as matrix_board-F.Cu.svg date 2018/12/14 21:30:42 </title>
  <desc
     id="desc13762">Picture generated by PCBNEW </desc>
  <g
     style="fill:#000000; fill-opacity:1;stroke:#000000; stroke-opacity:1; stroke-linecap:round; stroke-linejoin:round; "
     transform="translate(0 0) scale(1 1)"
     id="g13764" />
  <g
     style="fill:#000000; fill-opacity:0.0;  stroke:#000000; stroke-width:-0.000393701; stroke-opacity:1;  stroke-linecap:round; stroke-linejoin:round;"
     id="g13766" />
  <g
     style="fill:#000000; fill-opacity:0.0;  stroke:#000000; stroke-width:0; stroke-opacity:1;  stroke-linecap:round; stroke-linejoin:round;"
     id="g13768" />
  <g
     style="fill:#000000; fill-opacity:1.0;  stroke:#000000; stroke-width:0; stroke-opacity:1;  stroke-linecap:round; stroke-linejoin:round;"
     id="g13770">
    <polyline
       style="fill-rule:evenodd;"
       points="11568,5411 11568,5551 11128,5551 11128,5411 11568,5411 "
       id="polyline13772" />
    <polyline
       style="fill-rule:evenodd;"
       points="11569,5096 11569,5236 11069,5236 11069,5096 11569,5096 "
       id="polyline13774" />
    <polyline
       style="fill-rule:evenodd;"
       points="11569,4781 11569,4921 11069,4921 11069,4781 11569,4781 "
       id="polyline13776" />
    <polyline
       style="fill-rule:evenodd;"
       points="11569,4466 11569,4606 11069,4606 11069,4466 11569,4466 "
       id="polyline13778" />
    <polyline
       style="fill-rule:evenodd;"
       points="11569,4152 11569,4292 11069,4292 11069,4152 11569,4152 "
       id="polyline13780" />
    <polyline
       style="fill-rule:evenodd;"
       points="11569,3837 11569,3977 11069,3977 11069,3837 11569,3837 "
       id="polyline13782" />
    <polyline
       style="fill-rule:evenodd;"
       points="11569,3522 11569,3662 11069,3662 11069,3522 11569,3522 "
       id="polyline13784" />
    <polyline
       style="fill-rule:evenodd;"
       points="11568,3207 11568,3347 11128,3347 11128,3207 11568,3207 "
       id="polyline13786" />
    <polyline
       style="fill-rule:evenodd;"
       points="10801,2440 10801,2880 10661,2880 10661,2440 10801,2440 "
       id="polyline13788" />
    <polyline
       style="fill-rule:evenodd;"
       points="10486,2439 10486,2939 10346,2939 10346,2439 10486,2439 "
       id="polyline13790" />
    <polyline
       style="fill-rule:evenodd;"
       points="10170,2439 10170,2939 10033,2939 10033,2439 10170,2439 "
       id="polyline13792" />
    <polyline
       style="fill-rule:evenodd;"
       points="9855,2439 9855,2939 9718,2939 9718,2439 9855,2439 "
       id="polyline13794" />
    <polyline
       style="fill-rule:evenodd;"
       points="9541,2439 9541,2939 9404,2939 9404,2439 9541,2439 "
       id="polyline13796" />
    <polyline
       style="fill-rule:evenodd;"
       points="9227,2439 9227,2939 9087,2939 9087,2439 9227,2439 "
       id="polyline13798" />
    <polyline
       style="fill-rule:evenodd;"
       points="8912,2439 8912,2939 8772,2939 8772,2439 8912,2439 "
       id="polyline13800" />
    <polyline
       style="fill-rule:evenodd;"
       points="8597,2440 8597,2880 8457,2880 8457,2440 8597,2440 "
       id="polyline13802" />
    <polyline
       style="fill-rule:evenodd;"
       points="8130,3207 8130,3347 7690,3347 7690,3207 8130,3207 "
       id="polyline13804" />
    <polyline
       style="fill-rule:evenodd;"
       points="8189,3522 8189,3662 7689,3662 7689,3522 8189,3522 "
       id="polyline13806" />
    <polyline
       style="fill-rule:evenodd;"
       points="8189,3837 8189,3977 7689,3977 7689,3837 8189,3837 "
       id="polyline13808" />
    <polyline
       style="fill-rule:evenodd;"
       points="8189,4152 8189,4292 7689,4292 7689,4152 8189,4152 "
       id="polyline13810" />
    <polyline
       style="fill-rule:evenodd;"
       points="8189,4466 8189,4606 7689,4606 7689,4466 8189,4466 "
       id="polyline13812" />
    <polyline
       style="fill-rule:evenodd;"
       points="8189,4781 8189,4921 7689,4921 7689,4781 8189,4781 "
       id="polyline13814" />
    <polyline
       style="fill-rule:evenodd;"
       points="8189,5096 8189,5236 7689,5236 7689,5096 8189,5096 "
       id="polyline13816" />
    <polyline
       style="fill-rule:evenodd;"
       points="8130,5411 8130,5551 7690,5551 7690,5411 8130,5411 "
       id="polyline13818" />
    <polyline
       style="fill-rule:evenodd;"
       points="8597,5878 8597,6318 8457,6318 8457,5878 8597,5878 "
       id="polyline13820" />
    <polyline
       style="fill-rule:evenodd;"
       points="8912,5819 8912,6319 8772,6319 8772,5819 8912,5819 "
       id="polyline13822" />
    <polyline
       style="fill-rule:evenodd;"
       points="9227,5819 9227,6319 9087,6319 9087,5819 9227,5819 "
       id="polyline13824" />
    <polyline
       style="fill-rule:evenodd;"
       points="9541,5819 9541,6319 9404,6319 9404,5819 9541,5819 "
       id="polyline13826" />
    <polyline
       style="fill-rule:evenodd;"
       points="9855,5819 9855,6319 9718,6319 9718,5819 9855,5819 "
       id="polyline13828" />
    <polyline
       style="fill-rule:evenodd;"
       points="10170,5819 10170,6319 10033,6319 10033,5819 10170,5819 "
       id="polyline13830" />
    <polyline
       style="fill-rule:evenodd;"
       points="10486,5819 10486,6319 10346,6319 10346,5819 10486,5819 "
       id="polyline13832" />
    <polyline
       style="fill-rule:evenodd;"
       points="10801,5878 10801,6318 10661,6318 10661,5878 10801,5878 "
       id="polyline13834" />
    <polyline
       style="fill-rule:evenodd;"
       points="6179,5129 6179,5629 5179,5629 5179,5129 6179,5129 "
       id="polyline13836" />
    <polyline
       style="fill-rule:evenodd;"
       points="4030,5129 4030,5629 3030,5629 3030,5129 4030,5129 "
       id="polyline13838" />
    <polyline
       style="fill-rule:evenodd;"
       points="6179,4129 6179,4629 5179,4629 5179,4129 6179,4129 "
       id="polyline13840" />
    <polyline
       style="fill-rule:evenodd;"
       points="4030,4129 4030,4629 3030,4629 3030,4129 4030,4129 "
       id="polyline13842" />
    <polyline
       style="fill-rule:evenodd;"
       points="6179,3129 6179,3629 5179,3629 5179,3129 6179,3129 "
       id="polyline13844" />
    <polyline
       style="fill-rule:evenodd;"
       points="4030,3129 4030,3629 3030,3629 3030,3129 4030,3129 "
       id="polyline13846" />
    <polyline
       style="fill-rule:evenodd;"
       points="17129,1439 17129,1939 16129,1939 16129,1439 17129,1439 "
       id="polyline13848" />
    <polyline
       style="fill-rule:evenodd;"
       points="14980,2439 14980,2939 13980,2939 13980,2439 14980,2439 "
       id="polyline13850" />
    <polyline
       style="fill-rule:evenodd;"
       points="17129,2439 17129,2939 16129,2939 16129,2439 17129,2439 "
       id="polyline13852" />
    <polyline
       style="fill-rule:evenodd;"
       points="14980,1439 14980,1939 13980,1939 13980,1439 14980,1439 "
       id="polyline13854" />
    <polyline
       style="fill-rule:evenodd;"
       points="14980,3439 14980,3939 13980,3939 13980,3439 14980,3439 "
       id="polyline13856" />
    <polyline
       style="fill-rule:evenodd;"
       points="17129,3439 17129,3939 16129,3939 16129,3439 17129,3439 "
       id="polyline13858" />
    <polyline
       style="fill-rule:evenodd;"
       points="14980,4439 14980,4939 13980,4939 13980,4439 14980,4439 "
       id="polyline13860" />
    <polyline
       style="fill-rule:evenodd;"
       points="17129,4439 17129,4939 16129,4939 16129,4439 17129,4439 "
       id="polyline13862" />
    <polyline
       style="fill-rule:evenodd;"
       points="17129,5439 17129,5939 16129,5939 16129,5439 17129,5439 "
       id="polyline13864" />
    <polyline
       style="fill-rule:evenodd;"
       points="14980,5439 14980,5939 13980,5939 13980,5439 14980,5439 "
       id="polyline13866" />
    <polyline
       style="fill-rule:evenodd;"
       points="14980,6439 14980,6939 13980,6939 13980,6439 14980,6439 "
       id="polyline13868" />
    <polyline
       style="fill-rule:evenodd;"
       points="17129,6439 17129,6939 16129,6939 16129,6439 17129,6439 "
       id="polyline13870" />
    <polyline
       style="fill-rule:evenodd;"
       points="14980,7439 14980,7939 13980,7939 13980,7439 14980,7439 "
       id="polyline13872" />
    <polyline
       style="fill-rule:evenodd;"
       points="17129,7439 17129,7939 16129,7939 16129,7439 17129,7439 "
       id="polyline13874" />
    <polyline
       style="fill-rule:evenodd;"
       points="14980,8439 14980,8939 13980,8939 13980,8439 14980,8439 "
       id="polyline13876" />
    <polyline
       style="fill-rule:evenodd;"
       points="17129,8439 17129,8939 16129,8939 16129,8439 17129,8439 "
       id="polyline13878" />
    <polyline
       style="fill-rule:evenodd;"
       points="9925,8083 10634,8083 10634,8712 9925,8712 9925,8083 "
       id="polyline13880" />
    <polyline
       style="fill-rule:evenodd;"
       points="9925,6965 10634,6965 10634,7594 9925,7594 9925,6965 "
       id="polyline13882" />
    <polyline
       style="fill-rule:evenodd;"
       points="9484,7594 8775,7594 8775,6965 9484,6965 9484,7594 "
       id="polyline13884" />
    <polyline
       style="fill-rule:evenodd;"
       points="9484,8712 8775,8712 8775,8083 9484,8083 9484,8712 "
       id="polyline13886" />
    <polyline
       style="fill-rule:evenodd;"
       points="1175,3464 1883,3464 1883,4093 1175,4093 1175,3464 "
       id="polyline13888" />
    <polyline
       style="fill-rule:evenodd;"
       points="1175,4566 1883,4566 1883,5195 1175,5195 1175,4566 "
       id="polyline13890" />
    <polyline
       style="fill-rule:evenodd;"
       points="7025,6765 7734,6765 7734,7394 7025,7394 7025,6765 "
       id="polyline13892" />
    <polyline
       style="fill-rule:evenodd;"
       points="7025,7883 7734,7883 7734,8512 7025,8512 7025,7883 "
       id="polyline13894" />
    <polyline
       style="fill-rule:evenodd;"
       points="6234,8503 5525,8503 5525,7874 6234,7874 6234,8503 "
       id="polyline13896" />
    <polyline
       style="fill-rule:evenodd;"
       points="6234,7385 5525,7385 5525,6756 6234,6756 6234,7385 "
       id="polyline13898" />
    <circle
       cx="8299.53"
       cy="8389.53"
       r="157.48"
       id="circle13900" />
  </g>
  <g
     style="fill:#000000; fill-opacity:1.0;  stroke:#000000; stroke-width:39.3701; stroke-opacity:1;  stroke-linecap:round; stroke-linejoin:round;"
     id="g13902" />
  <g
     style="fill:#000000; fill-opacity:1.0;  stroke:#000000; stroke-width:0; stroke-opacity:1;  stroke-linecap:round; stroke-linejoin:round;"
     id="g13904">
    <circle
       cx="10659.5"
       cy="5449.53"
       r="157.48"
       id="circle13906" />
  </g>
  <g
     style="fill:#000000; fill-opacity:1.0;  stroke:#000000; stroke-width:39.3701; stroke-opacity:1;  stroke-linecap:round; stroke-linejoin:round;"
     id="g13908" />
  <g
     style="fill:#000000; fill-opacity:1.0;  stroke:#000000; stroke-width:0; stroke-opacity:1;  stroke-linecap:round; stroke-linejoin:round;"
     id="g13910">
    <circle
       cx="8519.53"
       cy="4309.53"
       r="157.48"
       id="circle13912" />
  </g>
  <g
     style="fill:#000000; fill-opacity:1.0;  stroke:#000000; stroke-width:39.3701; stroke-opacity:1;  stroke-linecap:round; stroke-linejoin:round;"
     id="g13914" />
  <g
     style="fill:#000000; fill-opacity:1.0;  stroke:#000000; stroke-width:0; stroke-opacity:1;  stroke-linecap:round; stroke-linejoin:round;"
     id="g13916">
    <circle
       cx="8909.53"
       cy="4629.53"
       r="157.48"
       id="circle13918" />
  </g>
  <g
     style="fill:#000000; fill-opacity:1.0;  stroke:#000000; stroke-width:39.3701; stroke-opacity:1;  stroke-linecap:round; stroke-linejoin:round;"
     id="g13920" />
  <g
     style="fill:#000000; fill-opacity:1.0;  stroke:#000000; stroke-width:0; stroke-opacity:1;  stroke-linecap:round; stroke-linejoin:round;"
     id="g13922">
    <circle
       cx="10029.5"
       cy="5069.53"
       r="157.48"
       id="circle13924" />
  </g>
  <g
     style="fill:#000000; fill-opacity:1.0;  stroke:#000000; stroke-width:39.3701; stroke-opacity:1;  stroke-linecap:round; stroke-linejoin:round;"
     id="g13926" />
  <g
     style="fill:#000000; fill-opacity:1.0;  stroke:#000000; stroke-width:0; stroke-opacity:1;  stroke-linecap:round; stroke-linejoin:round;"
     id="g13928">
    <circle
       cx="7189.53"
       cy="4529.53"
       r="157.48"
       id="circle13930" />
  </g>
  <g
     style="fill:#000000; fill-opacity:1.0;  stroke:#000000; stroke-width:39.3701; stroke-opacity:1;  stroke-linecap:round; stroke-linejoin:round;"
     id="g13932" />
  <g
     style="fill:#000000; fill-opacity:1.0;  stroke:#000000; stroke-width:0; stroke-opacity:1;  stroke-linecap:round; stroke-linejoin:round;"
     id="g13934">
    <circle
       cx="15519.5"
       cy="3679.53"
       r="157.48"
       id="circle13936" />
  </g>
  <g
     style="fill:#000000; fill-opacity:1.0;  stroke:#000000; stroke-width:39.3701; stroke-opacity:1;  stroke-linecap:round; stroke-linejoin:round;"
     id="g13938" />
  <g
     style="fill:#000000; fill-opacity:1.0;  stroke:#000000; stroke-width:0; stroke-opacity:1;  stroke-linecap:round; stroke-linejoin:round;"
     id="g13940">
    <circle
       cx="15509.5"
       cy="4699.53"
       r="157.48"
       id="circle13942" />
  </g>
  <g
     style="fill:#000000; fill-opacity:1.0;  stroke:#000000; stroke-width:39.3701; stroke-opacity:1;  stroke-linecap:round; stroke-linejoin:round;"
     id="g13944" />
  <g
     style="fill:#000000; fill-opacity:1.0;  stroke:#000000; stroke-width:0; stroke-opacity:1;  stroke-linecap:round; stroke-linejoin:round;"
     id="g13946">
    <circle
       cx="17829.5"
       cy="4699.53"
       r="157.48"
       id="circle13948" />
  </g>
  <g
     style="fill:#000000; fill-opacity:1.0;  stroke:#000000; stroke-width:39.3701; stroke-opacity:1;  stroke-linecap:round; stroke-linejoin:round;"
     id="g13950" />
  <g
     style="fill:#000000; fill-opacity:1.0;  stroke:#000000; stroke-width:0; stroke-opacity:1;  stroke-linecap:round; stroke-linejoin:round;"
     id="g13952">
    <circle
       cx="17849.5"
       cy="3669.53"
       r="157.48"
       id="circle13954" />
  </g>
  <g
     style="fill:#000000; fill-opacity:1.0;  stroke:#000000; stroke-width:39.3701; stroke-opacity:1;  stroke-linecap:round; stroke-linejoin:round;"
     id="g13956" />
  <g
     style="fill:#000000; fill-opacity:1.0;  stroke:#000000; stroke-width:0; stroke-opacity:1;  stroke-linecap:round; stroke-linejoin:round;"
     id="g13958">
    <circle
       cx="15399.5"
       cy="1659.53"
       r="157.48"
       id="circle13960" />
  </g>
  <g
     style="fill:#000000; fill-opacity:1.0;  stroke:#000000; stroke-width:39.3701; stroke-opacity:1;  stroke-linecap:round; stroke-linejoin:round;"
     id="g13962" />
  <g
     style="fill:#000000; fill-opacity:1.0;  stroke:#000000; stroke-width:0; stroke-opacity:1;  stroke-linecap:round; stroke-linejoin:round;"
     id="g13964">
    <circle
       cx="10509.5"
       cy="3589.53"
       r="157.48"
       id="circle13966" />
  </g>
  <g
     style="fill:#000000; fill-opacity:1.0;  stroke:#000000; stroke-width:39.3701; stroke-opacity:1;  stroke-linecap:round; stroke-linejoin:round;"
     id="g13968" />
  <g
     style="fill:#000000; fill-opacity:1.0;  stroke:#000000; stroke-width:0; stroke-opacity:1;  stroke-linecap:round; stroke-linejoin:round;"
     id="g13970">
    <circle
       cx="4719.53"
       cy="6029.53"
       r="157.48"
       id="circle13972" />
  </g>
  <g
     style="fill:#000000; fill-opacity:1.0;  stroke:#000000; stroke-width:39.3701; stroke-opacity:1;  stroke-linecap:round; stroke-linejoin:round;"
     id="g13974" />
  <g
     style="fill:#000000; fill-opacity:1.0;  stroke:#000000; stroke-width:0; stroke-opacity:1;  stroke-linecap:round; stroke-linejoin:round;"
     id="g13976">
    <circle
       cx="12329.5"
       cy="4599.53"
       r="157.48"
       id="circle13978" />
  </g>
  <g
     style="fill:#000000; fill-opacity:1.0;  stroke:#000000; stroke-width:39.3701; stroke-opacity:1;  stroke-linecap:round; stroke-linejoin:round;"
     id="g13980" />
  <g
     style="fill:#000000; fill-opacity:1.0;  stroke:#000000; stroke-width:0; stroke-opacity:1;  stroke-linecap:round; stroke-linejoin:round;"
     id="g13982">
    <circle
       cx="7929.53"
       cy="6099.53"
       r="157.48"
       id="circle13984" />
  </g>
  <g
     style="fill:#000000; fill-opacity:1.0;  stroke:#000000; stroke-width:39.3701; stroke-opacity:1;  stroke-linecap:round; stroke-linejoin:round;"
     id="g13986" />
  <g
     style="fill:#000000; fill-opacity:1.0;  stroke:#000000; stroke-width:98.4252; stroke-opacity:1;  stroke-linecap:round; stroke-linejoin:round;"
     id="g13988" />
  <g
     style="fill:#000000; fill-opacity:0.0;  stroke:#000000; stroke-width:98.4252; stroke-opacity:1;  stroke-linecap:round; stroke-linejoin:round;"
     id="g13990">
    <path
       d="M1569 3778 L1968 3379 "
       id="path13992" />
    <path
       d="M1529 3778 L1569 3778 "
       id="path13994" />
    <path
       d="M1968 3379 L3530 3379 "
       id="path13996" />
    <path
       d="M11952 4222 L11302 4222 "
       id="path13998" />
    <path
       d="M12329 4599 L11952 4222 "
       id="path14000" />
    <path
       d="M12077 4851 L11302 4851 "
       id="path14002" />
    <path
       d="M12329 4599 L12077 4851 "
       id="path14004" />
    <path
       d="M12329 4822 L12329 4599 "
       id="path14006" />
    <path
       d="M12329 6136 L12329 4822 "
       id="path14008" />
    <path
       d="M13882 7689 L12329 6136 "
       id="path14010" />
    <path
       d="M14480 7689 L13882 7689 "
       id="path14012" />
    <path
       d="M12862 8909 L13412 9459 "
       id="path14014" />
    <path
       d="M15078 7689 L14480 7689 "
       id="path14016" />
    <path
       d="M15393 7689 L15078 7689 "
       id="path14018" />
    <path
       d="M15849 7232 L15393 7689 "
       id="path14020" />
    <path
       d="M17294 7232 L15849 7232 "
       id="path14022" />
    <path
       d="M17336 7274 L17294 7232 "
       id="path14024" />
    <path
       d="M17336 9104 L17336 7274 "
       id="path14026" />
    <path
       d="M16981 9459 L17336 9104 "
       id="path14028" />
    <path
       d="M13412 9459 L16981 9459 "
       id="path14030" />
    <path
       d="M15078 5689 L14480 5689 "
       id="path14032" />
    <path
       d="M15535 6146 L15078 5689 "
       id="path14034" />
    <path
       d="M17208 6146 L15535 6146 "
       id="path14036" />
    <path
       d="M17336 6274 L17208 6146 "
       id="path14038" />
    <path
       d="M17336 7191 L17336 6274 "
       id="path14040" />
    <path
       d="M17294 7232 L17336 7191 "
       id="path14042" />
    <path
       d="M14510 1659 L14480 1689 "
       id="path14044" />
    <path
       d="M7932 4529 L7939 4536 "
       id="path14046" />
    <path
       d="M7189 4529 L7932 4529 "
       id="path14048" />
    <path
       d="M6926 8197 L7379 8197 "
       id="path14050" />
    <path
       d="M6414 8709 L6926 8197 "
       id="path14052" />
    <path
       d="M4318 8709 L6414 8709 "
       id="path14054" />
    <path
       d="M968 5360 L4318 8709 "
       id="path14056" />
    <path
       d="M968 4299 L968 5360 "
       id="path14058" />
    <path
       d="M1490 3778 L968 4299 "
       id="path14060" />
    <path
       d="M1529 3778 L1490 3778 "
       id="path14062" />
    <path
       d="M9718 8918 L10239 8397 "
       id="path14064" />
    <path
       d="M7687 8918 L9718 8918 "
       id="path14066" />
    <path
       d="M10239 8397 L10279 8397 "
       id="path14068" />
    <path
       d="M7379 8610 L7687 8918 "
       id="path14070" />
    <path
       d="M7379 8197 L7379 8610 "
       id="path14072" />
    <path
       d="M11244 8909 L12862 8909 "
       id="path14074" />
    <path
       d="M10732 8397 L11244 8909 "
       id="path14076" />
    <path
       d="M10279 8397 L10732 8397 "
       id="path14078" />
    <path
       d="M15369 1689 L15399 1659 "
       id="path14080" />
    <path
       d="M14480 1689 L15369 1689 "
       id="path14082" />
    <path
       d="M3530 5879 L5839 8188 "
       id="path14084" />
    <path
       d="M5839 8188 L5879 8188 "
       id="path14086" />
    <path
       d="M3530 5379 L3530 5879 "
       id="path14088" />
    <path
       d="M4496 6029 L4719 6029 "
       id="path14090" />
    <path
       d="M4430 6029 L4496 6029 "
       id="path14092" />
    <path
       d="M3780 5379 L4430 6029 "
       id="path14094" />
    <path
       d="M3530 5379 L3780 5379 "
       id="path14096" />
    <path
       d="M7958 3589 L7956 3592 "
       id="path14098" />
    <path
       d="M10509 3589 L7958 3589 "
       id="path14100" />
    <path
       d="M10512 4537 L11302 4537 "
       id="path14102" />
    <path
       d="M10509 4539 L10512 4537 "
       id="path14104" />
    <path
       d="M10511 3907 L10509 3909 "
       id="path14106" />
    <path
       d="M11302 3907 L10511 3907 "
       id="path14108" />
    <path
       d="M10509 3909 L10509 4539 "
       id="path14110" />
    <path
       d="M10509 3589 L10509 3909 "
       id="path14112" />
    <path
       d="M1569 4880 L2068 5379 "
       id="path14114" />
    <path
       d="M1529 4880 L1569 4880 "
       id="path14116" />
    <path
       d="M2068 5379 L3530 5379 "
       id="path14118" />
    <path
       d="M16031 8689 L16629 8689 "
       id="path14120" />
    <path
       d="M15574 9146 L16031 8689 "
       id="path14122" />
    <path
       d="M13460 9146 L15574 9146 "
       id="path14124" />
    <path
       d="M10731 6416 L13460 9146 "
       id="path14126" />
    <path
       d="M10731 6098 L10731 6416 "
       id="path14128" />
    <path
       d="M13882 8689 L14480 8689 "
       id="path14130" />
    <path
       d="M11817 6625 L13882 8689 "
       id="path14132" />
    <path
       d="M11817 6119 L11817 6625 "
       id="path14134" />
    <path
       d="M11348 5649 L11817 6119 "
       id="path14136" />
    <path
       d="M11348 5481 L11348 5649 "
       id="path14138" />
    <path
       d="M16031 7689 L16629 7689 "
       id="path14140" />
    <path
       d="M15574 8146 L16031 7689 "
       id="path14142" />
    <path
       d="M13815 8146 L15574 8146 "
       id="path14144" />
    <path
       d="M12073 6404 L13815 8146 "
       id="path14146" />
    <path
       d="M12073 5544 L12073 6404 "
       id="path14148" />
    <path
       d="M11695 5166 L12073 5544 "
       id="path14150" />
    <path
       d="M11319 5166 L11695 5166 "
       id="path14152" />
    <path
       d="M16031 6689 L16629 6689 "
       id="path14154" />
    <path
       d="M15574 7146 L16031 6689 "
       id="path14156" />
    <path
       d="M10731 2660 L12750 2660 "
       id="path14158" />
    <path
       d="M13815 7146 L15574 7146 "
       id="path14160" />
    <path
       d="M12750 2660 L12750 6081 "
       id="path14162" />
    <path
       d="M12750 6081 L13815 7146 "
       id="path14164" />
    <path
       d="M13006 5465 L14230 6689 "
       id="path14166" />
    <path
       d="M10416 2313 L10496 2233 "
       id="path14168" />
    <path
       d="M13006 2233 L13006 5465 "
       id="path14170" />
    <path
       d="M10496 2233 L13006 2233 "
       id="path14172" />
    <path
       d="M14230 6689 L14480 6689 "
       id="path14174" />
    <path
       d="M10416 2689 L10416 2313 "
       id="path14176" />
    <path
       d="M15487 5146 L16031 5689 "
       id="path14178" />
    <path
       d="M13815 5146 L15487 5146 "
       id="path14180" />
    <path
       d="M13262 4593 L13815 5146 "
       id="path14182" />
    <path
       d="M10390 1977 L13262 1977 "
       id="path14184" />
    <path
       d="M13262 1977 L13262 4593 "
       id="path14186" />
    <path
       d="M16031 5689 L16629 5689 "
       id="path14188" />
    <path
       d="M10101 2266 L10390 1977 "
       id="path14190" />
    <path
       d="M10101 2689 L10101 2266 "
       id="path14192" />
    <path
       d="M16639 4699 L16629 4689 "
       id="path14194" />
    <path
       d="M17829 4699 L16639 4699 "
       id="path14196" />
    <path
       d="M8519 4532 L8519 4309 "
       id="path14198" />
    <path
       d="M8519 4905 L8519 4532 "
       id="path14200" />
    <path
       d="M8258 5166 L8519 4905 "
       id="path14202" />
    <path
       d="M7939 5166 L8258 5166 "
       id="path14204" />
    <path
       d="M14490 4699 L14480 4689 "
       id="path14206" />
    <path
       d="M15509 4699 L14490 4699 "
       id="path14208" />
    <path
       d="M8909 4852 L8909 4629 "
       id="path14210" />
    <path
       d="M8909 4877 L8909 4852 "
       id="path14212" />
    <path
       d="M8305 5481 L8909 4877 "
       id="path14214" />
    <path
       d="M7910 5481 L8305 5481 "
       id="path14216" />
    <path
       d="M16649 3669 L16629 3689 "
       id="path14218" />
    <path
       d="M17849 3669 L16649 3669 "
       id="path14220" />
    <path
       d="M7930 6098 L7929 6099 "
       id="path14222" />
    <path
       d="M8527 6098 L7930 6098 "
       id="path14224" />
    <path
       d="M14490 3679 L14480 3689 "
       id="path14226" />
    <path
       d="M15519 3679 L14490 3679 "
       id="path14228" />
    <path
       d="M9806 5069 L10029 5069 "
       id="path14230" />
    <path
       d="M9420 5069 L9806 5069 "
       id="path14232" />
    <path
       d="M8842 5647 L9420 5069 "
       id="path14234" />
    <path
       d="M8842 6069 L8842 5647 "
       id="path14236" />
    <path
       d="M15487 3232 L16031 2689 "
       id="path14238" />
    <path
       d="M16031 2689 L16629 2689 "
       id="path14240" />
    <path
       d="M13517 3227 L15140 3227 "
       id="path14242" />
    <path
       d="M13517 1722 L13517 3227 "
       id="path14244" />
    <path
       d="M15140 3227 L15145 3232 "
       id="path14246" />
    <path
       d="M9786 2689 L9786 2219 "
       id="path14248" />
    <path
       d="M10284 1722 L13517 1722 "
       id="path14250" />
    <path
       d="M15145 3232 L15487 3232 "
       id="path14252" />
    <path
       d="M9786 2219 L10284 1722 "
       id="path14254" />
    <path
       d="M9157 2341 L9157 2689 "
       id="path14256" />
    <path
       d="M9157 2124 L9157 2341 "
       id="path14258" />
    <path
       d="M10072 1210 L9157 2124 "
       id="path14260" />
    <path
       d="M17272 1210 L10072 1210 "
       id="path14262" />
    <path
       d="M17336 1274 L17272 1210 "
       id="path14264" />
    <path
       d="M17336 2104 L17336 1274 "
       id="path14266" />
    <path
       d="M17294 2146 L17336 2104 "
       id="path14268" />
    <path
       d="M15964 2146 L17294 2146 "
       id="path14270" />
    <path
       d="M15420 2689 L15964 2146 "
       id="path14272" />
    <path
       d="M14480 2689 L15420 2689 "
       id="path14274" />
    <path
       d="M13784 2146 L15574 2146 "
       id="path14276" />
    <path
       d="M15574 2146 L16031 1689 "
       id="path14278" />
    <path
       d="M13773 2135 L13784 2146 "
       id="path14280" />
    <path
       d="M10178 1466 L13773 1466 "
       id="path14282" />
    <path
       d="M9472 2171 L10178 1466 "
       id="path14284" />
    <path
       d="M13773 1466 L13773 2135 "
       id="path14286" />
    <path
       d="M16031 1689 L16629 1689 "
       id="path14288" />
    <path
       d="M9472 2689 L9472 2171 "
       id="path14290" />
    <path
       d="M8359 2660 L8527 2660 "
       id="path14292" />
    <path
       d="M7635 2660 L8359 2660 "
       id="path14294" />
    <path
       d="M6459 3836 L7635 2660 "
       id="path14296" />
    <path
       d="M5100 3836 L6459 3836 "
       id="path14298" />
    <path
       d="M4972 3964 L5100 3836 "
       id="path14300" />
    <path
       d="M4972 4922 L4972 3964 "
       id="path14302" />
    <path
       d="M5429 5379 L4972 4922 "
       id="path14304" />
    <path
       d="M5679 5379 L5429 5379 "
       id="path14306" />
    <path
       d="M5679 4379 L5929 4379 "
       id="path14308" />
    <path
       d="M7592 3277 L7910 3277 "
       id="path14310" />
    <path
       d="M6277 4379 L7379 3277 "
       id="path14312" />
    <path
       d="M7379 3277 L7592 3277 "
       id="path14314" />
    <path
       d="M5679 4379 L6277 4379 "
       id="path14316" />
    <path
       d="M3780 4379 L3530 4379 "
       id="path14318" />
    <path
       d="M4461 3699 L3780 4379 "
       id="path14320" />
    <path
       d="M4461 3475 L4461 3699 "
       id="path14322" />
    <path
       d="M5703 2233 L4461 3475 "
       id="path14324" />
    <path
       d="M8842 2689 L8842 2313 "
       id="path14326" />
    <path
       d="M8842 2313 L8762 2233 "
       id="path14328" />
    <path
       d="M8762 2233 L5703 2233 "
       id="path14330" />
    <path
       d="M9786 6446 L9786 6302 "
       id="path14332" />
    <path
       d="M9706 6526 L9786 6446 "
       id="path14334" />
    <path
       d="M5755 6526 L9706 6526 "
       id="path14336" />
    <path
       d="M4716 5487 L5755 6526 "
       id="path14338" />
    <path
       d="M4716 3743 L4716 5487 "
       id="path14340" />
    <path
       d="M5081 3379 L4716 3743 "
       id="path14342" />
    <path
       d="M5679 3379 L5081 3379 "
       id="path14344" />
    <path
       d="M9786 6302 L9786 6069 "
       id="path14346" />
    <path
       d="M7370 7070 L7379 7079 "
       id="path14348" />
    <path
       d="M5879 7070 L7370 7070 "
       id="path14350" />
    <path
       d="M10279 7279 L9129 7279 "
       id="path14352" />
    <path
       d="M9121 8389 L9129 8397 "
       id="path14354" />
    <path
       d="M8299 8389 L9121 8389 "
       id="path14356" />
    <path
       d="M9157 5693 L9241 5609 "
       id="path14358" />
    <path
       d="M9157 6069 L9157 5693 "
       id="path14360" />
    <path
       d="M10499 5609 L10659 5449 "
       id="path14362" />
    <path
       d="M9241 5609 L10499 5609 "
       id="path14364" />
  </g>
  <g
     style="fill:#FFFFFF; fill-opacity:0.0;  stroke:#FFFFFF; stroke-width:98.4252; stroke-opacity:1;  stroke-linecap:round; stroke-linejoin:round;"
     id="g14366" />
  <g
     style="fill:#FFFFFF; fill-opacity:1.0;  stroke:#FFFFFF; stroke-width:0; stroke-opacity:1;  stroke-linecap:round; stroke-linejoin:round;"
     id="g14368">
    <circle
       cx="8299.53"
       cy="8389.53"
       r="78.7402"
       id="circle14370" />
  </g>
  <g
     style="fill:#FFFFFF; fill-opacity:1.0;  stroke:#FFFFFF; stroke-width:39.3701; stroke-opacity:1;  stroke-linecap:round; stroke-linejoin:round;"
     id="g14372" />
  <g
     style="fill:#FFFFFF; fill-opacity:1.0;  stroke:#FFFFFF; stroke-width:0; stroke-opacity:1;  stroke-linecap:round; stroke-linejoin:round;"
     id="g14374">
    <circle
       cx="10659.5"
       cy="5449.53"
       r="78.7402"
       id="circle14376" />
  </g>
  <g
     style="fill:#FFFFFF; fill-opacity:1.0;  stroke:#FFFFFF; stroke-width:39.3701; stroke-opacity:1;  stroke-linecap:round; stroke-linejoin:round;"
     id="g14378" />
  <g
     style="fill:#FFFFFF; fill-opacity:1.0;  stroke:#FFFFFF; stroke-width:0; stroke-opacity:1;  stroke-linecap:round; stroke-linejoin:round;"
     id="g14380">
    <circle
       cx="8519.53"
       cy="4309.53"
       r="78.7402"
       id="circle14382" />
  </g>
  <g
     style="fill:#FFFFFF; fill-opacity:1.0;  stroke:#FFFFFF; stroke-width:39.3701; stroke-opacity:1;  stroke-linecap:round; stroke-linejoin:round;"
     id="g14384" />
  <g
     style="fill:#FFFFFF; fill-opacity:1.0;  stroke:#FFFFFF; stroke-width:0; stroke-opacity:1;  stroke-linecap:round; stroke-linejoin:round;"
     id="g14386">
    <circle
       cx="8909.53"
       cy="4629.53"
       r="78.7402"
       id="circle14388" />
  </g>
  <g
     style="fill:#FFFFFF; fill-opacity:1.0;  stroke:#FFFFFF; stroke-width:39.3701; stroke-opacity:1;  stroke-linecap:round; stroke-linejoin:round;"
     id="g14390" />
  <g
     style="fill:#FFFFFF; fill-opacity:1.0;  stroke:#FFFFFF; stroke-width:0; stroke-opacity:1;  stroke-linecap:round; stroke-linejoin:round;"
     id="g14392">
    <circle
       cx="10029.5"
       cy="5069.53"
       r="78.7402"
       id="circle14394" />
  </g>
  <g
     style="fill:#FFFFFF; fill-opacity:1.0;  stroke:#FFFFFF; stroke-width:39.3701; stroke-opacity:1;  stroke-linecap:round; stroke-linejoin:round;"
     id="g14396" />
  <g
     style="fill:#FFFFFF; fill-opacity:1.0;  stroke:#FFFFFF; stroke-width:0; stroke-opacity:1;  stroke-linecap:round; stroke-linejoin:round;"
     id="g14398">
    <circle
       cx="7189.53"
       cy="4529.53"
       r="78.7402"
       id="circle14400" />
  </g>
  <g
     style="fill:#FFFFFF; fill-opacity:1.0;  stroke:#FFFFFF; stroke-width:39.3701; stroke-opacity:1;  stroke-linecap:round; stroke-linejoin:round;"
     id="g14402" />
  <g
     style="fill:#FFFFFF; fill-opacity:1.0;  stroke:#FFFFFF; stroke-width:0; stroke-opacity:1;  stroke-linecap:round; stroke-linejoin:round;"
     id="g14404">
    <circle
       cx="15519.5"
       cy="3679.53"
       r="78.7402"
       id="circle14406" />
  </g>
  <g
     style="fill:#FFFFFF; fill-opacity:1.0;  stroke:#FFFFFF; stroke-width:39.3701; stroke-opacity:1;  stroke-linecap:round; stroke-linejoin:round;"
     id="g14408" />
  <g
     style="fill:#FFFFFF; fill-opacity:1.0;  stroke:#FFFFFF; stroke-width:0; stroke-opacity:1;  stroke-linecap:round; stroke-linejoin:round;"
     id="g14410">
    <circle
       cx="15509.5"
       cy="4699.53"
       r="78.7402"
       id="circle14412" />
  </g>
  <g
     style="fill:#FFFFFF; fill-opacity:1.0;  stroke:#FFFFFF; stroke-width:39.3701; stroke-opacity:1;  stroke-linecap:round; stroke-linejoin:round;"
     id="g14414" />
  <g
     style="fill:#FFFFFF; fill-opacity:1.0;  stroke:#FFFFFF; stroke-width:0; stroke-opacity:1;  stroke-linecap:round; stroke-linejoin:round;"
     id="g14416">
    <circle
       cx="17829.5"
       cy="4699.53"
       r="78.7402"
       id="circle14418" />
  </g>
  <g
     style="fill:#FFFFFF; fill-opacity:1.0;  stroke:#FFFFFF; stroke-width:39.3701; stroke-opacity:1;  stroke-linecap:round; stroke-linejoin:round;"
     id="g14420" />
  <g
     style="fill:#FFFFFF; fill-opacity:1.0;  stroke:#FFFFFF; stroke-width:0; stroke-opacity:1;  stroke-linecap:round; stroke-linejoin:round;"
     id="g14422">
    <circle
       cx="17849.5"
       cy="3669.53"
       r="78.7402"
       id="circle14424" />
  </g>
  <g
     style="fill:#FFFFFF; fill-opacity:1.0;  stroke:#FFFFFF; stroke-width:39.3701; stroke-opacity:1;  stroke-linecap:round; stroke-linejoin:round;"
     id="g14426" />
  <g
     style="fill:#FFFFFF; fill-opacity:1.0;  stroke:#FFFFFF; stroke-width:0; stroke-opacity:1;  stroke-linecap:round; stroke-linejoin:round;"
     id="g14428">
    <circle
       cx="15399.5"
       cy="1659.53"
       r="78.7402"
       id="circle14430" />
  </g>
  <g
     style="fill:#FFFFFF; fill-opacity:1.0;  stroke:#FFFFFF; stroke-width:39.3701; stroke-opacity:1;  stroke-linecap:round; stroke-linejoin:round;"
     id="g14432" />
  <g
     style="fill:#FFFFFF; fill-opacity:1.0;  stroke:#FFFFFF; stroke-width:0; stroke-opacity:1;  stroke-linecap:round; stroke-linejoin:round;"
     id="g14434">
    <circle
       cx="10509.5"
       cy="3589.53"
       r="78.7402"
       id="circle14436" />
  </g>
  <g
     style="fill:#FFFFFF; fill-opacity:1.0;  stroke:#FFFFFF; stroke-width:39.3701; stroke-opacity:1;  stroke-linecap:round; stroke-linejoin:round;"
     id="g14438" />
  <g
     style="fill:#FFFFFF; fill-opacity:1.0;  stroke:#FFFFFF; stroke-width:0; stroke-opacity:1;  stroke-linecap:round; stroke-linejoin:round;"
     id="g14440">
    <circle
       cx="4719.53"
       cy="6029.53"
       r="78.7402"
       id="circle14442" />
  </g>
  <g
     style="fill:#FFFFFF; fill-opacity:1.0;  stroke:#FFFFFF; stroke-width:39.3701; stroke-opacity:1;  stroke-linecap:round; stroke-linejoin:round;"
     id="g14444" />
  <g
     style="fill:#FFFFFF; fill-opacity:1.0;  stroke:#FFFFFF; stroke-width:0; stroke-opacity:1;  stroke-linecap:round; stroke-linejoin:round;"
     id="g14446">
    <circle
       cx="12329.5"
       cy="4599.53"
       r="78.7402"
       id="circle14448" />
  </g>
  <g
     style="fill:#FFFFFF; fill-opacity:1.0;  stroke:#FFFFFF; stroke-width:39.3701; stroke-opacity:1;  stroke-linecap:round; stroke-linejoin:round;"
     id="g14450" />
  <g
     style="fill:#FFFFFF; fill-opacity:1.0;  stroke:#FFFFFF; stroke-width:0; stroke-opacity:1;  stroke-linecap:round; stroke-linejoin:round;"
     id="g14452">
    <circle
       cx="7929.53"
       cy="6099.53"
       r="78.7402"
       id="circle14454" />
  </g>
  <g
     style="fill:#FFFFFF; fill-opacity:1.0;  stroke:#FFFFFF; stroke-width:39.3701; stroke-opacity:1;  stroke-linecap:round; stroke-linejoin:round;"
     id="g14456" />
  <g
     style="fill:#000000; fill-opacity:1.0;  stroke:#000000; stroke-width:39.3701; stroke-opacity:1;  stroke-linecap:round; stroke-linejoin:round;"
     id="g14458" />
</svg>
